<svg xmlns="http://www.w3.org/2000/svg" viewBox="0 0 55.69 56.78"><defs><style>.cls-1{fill:none;stroke:#0d6334;stroke-miterlimit:10;stroke-width:0.25px;}.cls-2{fill:#0f3d1f;}</style></defs><title>Asset 13</title><g id="Layer_2" data-name="Layer 2"><g id="Layer_3" data-name="Layer 3"><ellipse class="cls-1" cx="27.84" cy="28.39" rx="27.72" ry="28.27"/><path class="cls-2" d="M44.4,18.76H11.28a.18.18,0,0,0-.18.18V40.21a.18.18,0,0,0,.18.18H44.4a.18.18,0,0,0,.18-.18V18.94A.18.18,0,0,0,44.4,18.76ZM42.76,38.37a.18.18,0,0,1-.18.18H13.09a.18.18,0,0,1-.18-.18V20.78a.18.18,0,0,1,.18-.18h29.5a.18.18,0,0,1,.18.18Z"/><ellipse class="cls-2" cx="36.12" cy="33.44" rx="1.98" ry="2.01"/><ellipse class="cls-2" cx="36.12" cy="27.85" rx="1.42" ry="1.45"/><rect class="cls-2" x="30.71" y="21.18" width="10.81" height="3.53" rx="0.37" ry="0.37"/><path class="cls-2" d="M29.23,30l-1.12.72,1.12.72h0a7.63,7.63,0,0,0,.21-1.3Z"/><polygon class="cls-2" points="28.53 31.88 27.42 31.16 26.3 31.88 27.42 32.6 28.53 31.88"/><path class="cls-2" d="M28.12,26l.7.45a7.58,7.58,0,0,0-.34-.68Z"/><polygon class="cls-2" points="25.6 29.09 26.72 28.37 25.6 27.66 24.49 28.37 25.6 29.09"/><polygon class="cls-2" points="26.72 30.71 25.6 29.99 24.49 30.71 25.6 31.43 26.72 30.71"/><polygon class="cls-2" points="25.6 26.75 26.72 26.03 25.6 25.32 24.49 26.03 25.6 26.75"/><polygon class="cls-2" points="20.16 27.92 21.28 27.2 20.16 26.48 19.05 27.2 20.16 27.92"/><polygon class="cls-2" points="19.46 30.71 18.35 29.99 17.23 30.71 18.35 31.43 19.46 30.71"/><polygon class="cls-2" points="23.09 33.05 21.98 32.33 20.86 33.05 21.98 33.77 23.09 33.05"/><polygon class="cls-2" points="23.79 27.92 24.9 27.2 23.79 26.48 22.67 27.2 23.79 27.92"/><polygon class="cls-2" points="26.3 27.2 27.42 27.92 28.53 27.2 27.42 26.48 26.3 27.2"/><polygon class="cls-2" points="20.86 26.03 21.98 26.75 23.09 26.03 21.98 25.32 20.86 26.03"/><polygon class="cls-2" points="18.35 29.09 19.46 28.37 18.35 27.66 17.23 28.37 18.35 29.09"/><polygon class="cls-2" points="16.53 28.82 15.42 29.54 16.53 30.26 17.65 29.54 16.53 28.82"/><polygon class="cls-2" points="27.42 30.26 28.53 29.54 27.42 28.82 26.3 29.54 27.42 30.26"/><path class="cls-2" d="M15.83,30.71,14.72,30h0a7.66,7.66,0,0,0,.19,1.32Z"/><path class="cls-2" d="M27.42,33.5l-1.12.72,1,.66a7.51,7.51,0,0,0,.78-.94Z"/><path class="cls-2" d="M27.42,25.58l.65-.42a7.51,7.51,0,0,0-.78-.93l-1,.63Z"/><path class="cls-2" d="M25.6,24.41l1.1-.71-.11-.09-1-.64-1.12.72Z"/><path class="cls-2" d="M14.72,29.09l1.12-.72-.92-.59A7.66,7.66,0,0,0,14.72,29.09Z"/><path class="cls-2" d="M29.22,27.66l-1.11.71,1.12.72.21-.13A7.63,7.63,0,0,0,29.22,27.66Z"/><polygon class="cls-2" points="20.16 30.26 21.28 29.54 20.16 28.82 19.05 29.54 20.16 30.26"/><polygon class="cls-2" points="23.79 28.82 22.67 29.54 23.79 30.26 24.9 29.54 23.79 28.82"/><polygon class="cls-2" points="21.98 27.66 20.86 28.37 21.98 29.09 23.09 28.37 21.98 27.66"/><polygon class="cls-2" points="23.09 30.71 21.98 29.99 20.86 30.71 21.98 31.43 23.09 30.71"/><polygon class="cls-2" points="21.28 31.88 20.16 31.16 19.05 31.88 20.16 32.6 21.28 31.88"/><path class="cls-2" d="M20.16,23.24l1.12-.72-.55-.35a7.22,7.22,0,0,0-1.51.46Z"/><path class="cls-2" d="M15.83,26l-.2-.13-.19.38Z"/><path class="cls-2" d="M16.53,25.58l1.12-.72-.85-.55a7.54,7.54,0,0,0-.77.94Z"/><path class="cls-2" d="M18.35,24.41l1.12-.72-1-.66a7.39,7.39,0,0,0-1.06.75Z"/><path class="cls-2" d="M22.67,22.52l1.12.72,1-.66a7.22,7.22,0,0,0-1.55-.44Z"/><path class="cls-2" d="M22,22.07l0,0h-.08Z"/><polygon class="cls-2" points="26.72 35.39 25.6 34.67 24.49 35.39 25.6 36.11 26.72 35.39"/><path class="cls-2" d="M21.28,36.56l-1.12-.72-1,.64a7.22,7.22,0,0,0,1.5.47Z"/><path class="cls-2" d="M15.83,33.05l-.43-.28q.1.21.21.42Z"/><path class="cls-2" d="M23.79,35.84l-1.12.72.66.43a7.22,7.22,0,0,0,1.54-.45Z"/><path class="cls-2" d="M22.11,37.1,22,37l-.13.08h.26Z"/><path class="cls-2" d="M17.65,34.22l-1.12-.72-.53.34a7.54,7.54,0,0,0,.76.95Z"/><path class="cls-2" d="M19.46,35.39l-1.12-.72-1,.66a7.41,7.41,0,0,0,1.06.76Z"/><polygon class="cls-2" points="16.53 27.92 17.65 27.2 16.53 26.48 15.42 27.2 16.53 27.92"/><polygon class="cls-2" points="23.79 25.58 24.9 24.86 23.79 24.14 22.67 24.86 23.79 25.58"/><polygon class="cls-2" points="23.79 33.5 22.67 34.22 23.79 34.94 24.9 34.22 23.79 33.5"/><polygon class="cls-2" points="20.16 25.58 21.28 24.86 20.16 24.14 19.05 24.86 20.16 25.58"/><path class="cls-2" d="M28.12,33.05l.38.25a7.6,7.6,0,0,0,.35-.72Z"/><polygon class="cls-2" points="18.35 26.75 19.46 26.03 18.35 25.32 17.23 26.03 18.35 26.75"/><polygon class="cls-2" points="26.72 33.05 25.6 32.33 24.49 33.05 25.6 33.77 26.72 33.05"/><polygon class="cls-2" points="20.86 23.69 21.98 24.41 23.09 23.69 21.98 22.98 20.86 23.69"/><polygon class="cls-2" points="21.28 34.22 20.16 33.5 19.05 34.22 20.16 34.94 21.28 34.22"/><polygon class="cls-2" points="23.09 35.39 21.98 34.67 20.86 35.39 21.98 36.11 23.09 35.39"/><polygon class="cls-2" points="23.79 31.16 22.67 31.88 23.79 32.6 24.9 31.88 23.79 31.16"/><polygon class="cls-2" points="17.65 31.88 16.53 31.16 15.42 31.88 16.53 32.6 17.65 31.88"/><polygon class="cls-2" points="19.46 33.05 18.35 32.33 17.23 33.05 18.35 33.77 19.46 33.05"/><path class="cls-2" d="M32.6,16.19c-5.15-1.93-9.29-3.72-9.2-4s4.37,1.14,9.52,3.07l.33.12c5.15,1.93,9.29,3.72,9.2,4s-4.37-1.14-9.52-3.07Z"/><ellipse class="cls-2" cx="23.47" cy="12.24" rx="1.19" ry="1.22"/></g></g></svg>