<svg xmlns="http://www.w3.org/2000/svg" viewBox="0 0 56.78 56.78"><defs><style>.cls-1{fill:none;stroke:#0d6334;stroke-miterlimit:10;stroke-width:0.25px;}.cls-2{fill:#0f3d1f;}</style></defs><title>Asset 12</title><g id="Layer_2" data-name="Layer 2"><g id="Layer_3" data-name="Layer 3"><circle class="cls-1" cx="28.39" cy="28.39" r="28.27"/><path class="cls-2" d="M24.08,18.38h.71c.35,0,.65-.16.65-.35V16.09a.43.43,0,0,1,.43-.43h6.22a.43.43,0,0,1,.43.43v2c0,.17.3.33.65.33h.71c.34,0,.65-.15.65-.33v-2a2.43,2.43,0,0,0-2.43-2.43H25.87a2.43,2.43,0,0,0-2.43,2.43V18C23.44,18.2,23.73,18.38,24.08,18.38Z"/><rect class="cls-2" x="27.35" y="30.14" width="3.26" height="2.03" rx="0.65" ry="0.65"/><rect class="cls-2" x="27.35" y="33.28" width="3.26" height="2.26" rx="0.65" ry="0.65"/><path class="cls-2" d="M42.2,31l-.47.17a38.36,38.36,0,0,1-10.1,2v1.25a2,2,0,0,1-2,2H28.32a2,2,0,0,1-2-2V33.16a38,38,0,0,1-10.83-2.23l-.7-.27-.05,0-.07,0v8.16a1.63,1.63,0,0,0,1.63,1.63H41.65a1.63,1.63,0,0,0,1.63-1.63V30.6l-.36.15Z"/><path class="cls-2" d="M42.29,19.61H15.68a1.58,1.58,0,0,0-1.58,1.58v7.06a.66.66,0,0,0,.32.49l.76.31a37.07,37.07,0,0,0,11.17,2.44V30.3c0-.79,1.19-1.32,2-1.32h1.31c.93,0,2,.61,2,1.53v1a37.41,37.41,0,0,0,9.76-1.91c1-.33,2.17-.85,2.19-.85a.64.64,0,0,0,.32-.48V21.19A1.58,1.58,0,0,0,42.29,19.61Z"/></g></g></svg>