<svg xmlns="http://www.w3.org/2000/svg" viewBox="0 0 55.69 56.78"><defs><style>.cls-1{fill:none;stroke:#0d6334;stroke-miterlimit:10;stroke-width:0.25px;}.cls-2{fill:#0f3d1f;}</style></defs><title>Asset 18</title><g id="Layer_2" data-name="Layer 2"><g id="Layer_3" data-name="Layer 3"><ellipse class="cls-1" cx="27.84" cy="28.39" rx="27.72" ry="28.27"/><path class="cls-2" d="M32.3,41.2H24.16a1.12,1.12,0,0,0-1.1,1.11,1.09,1.09,0,0,0,1.1,1.11H32.3a1.09,1.09,0,0,0,1.09-1.11A1.12,1.12,0,0,0,32.3,41.2ZM28.25,16.1h0a11.22,11.22,0,0,0-8.63,18.14,47.84,47.84,0,0,1,3.56,5.38H33.25a51.43,51.43,0,0,1,3.62-5.38,11.29,11.29,0,0,0,2.32-6.92A11.08,11.08,0,0,0,28.25,16.1Zm0,3.92h0a7.16,7.16,0,0,0-7.1,7.21,1.1,1.1,0,0,1-1.09,1.11A1.12,1.12,0,0,1,19,27.23a9.38,9.38,0,0,1,9.29-9.45,1.11,1.11,0,0,1,1.09,1.09A1.13,1.13,0,0,1,28.27,20ZM26.09,47.8h0v.62a1.23,1.23,0,0,0,1.24,1.26h1.81a1.25,1.25,0,0,0,1.24-1.26V47.8a2.66,2.66,0,0,0,2.44-2.67H23.62a2.66,2.66,0,0,0,2.47,2.67Z"/></g></g></svg>