<svg xmlns="http://www.w3.org/2000/svg" viewBox="0 0 56.78 56.78"><defs><style>.cls-1{fill:none;}.cls-1,.cls-2{stroke:#0d6334;stroke-miterlimit:10;stroke-width:0.25px;}.cls-2{fill:#0f3d1f;}</style></defs><title>Asset 8</title><g id="Layer_2" data-name="Layer 2"><g id="Layer_3" data-name="Layer 3"><circle class="cls-1" cx="28.39" cy="28.39" r="28.27"/><path class="cls-2" d="M40.83,23.06l.49.14.2,0a.75.75,0,0,0,.2-1.47l-.49-.14a.75.75,0,1,0-.41,1.45Z"/><path class="cls-2" d="M20.36,27a.75.75,0,0,0-.75-.75H18.37a.75.75,0,1,0,0,1.5h1.24A.75.75,0,0,0,20.36,27Z"/><path class="cls-2" d="M16.92,27a.75.75,0,0,0-.75-.75H10.54V24.93l14.67-4.11c.08,1.63.18,3.48.3,5.4H21.83a.75.75,0,0,0,0,1.5h3.78q.05.74.1,1.49c.21,2.85.44,5.3.68,7.33L21,39.81a.75.75,0,0,0-.36.75l.29,2.1a.75.75,0,0,0,.74.65h.13l5.64-1c.42,1.31.91,1.83,1.59,1.83s1.17-.52,1.59-1.83l5.64,1h.13a.75.75,0,0,0,.74-.65l.29-2.1a.75.75,0,0,0-.36-.75l-5.41-3.27c.24-2,.47-4.48.68-7.33q.05-.75.1-1.49H48.26A.75.75,0,0,0,49,27V24.36a.75.75,0,0,0-.55-.72l-4.61-1.29a.75.75,0,0,0-.4,1.45l4.06,1.14v1.29h-15c.12-1.92.22-3.77.3-5.4l5.83,1.63.2,0a.75.75,0,0,0,.2-1.47l-6.16-1.73c.11-2.57.17-4.29.17-4.32v0c0-2.83-1.82-5.13-4.05-5.13S25,12.11,25,14.93v0s.05,1.75.17,4.32L9.59,23.64a.75.75,0,0,0-.55.72V27a.75.75,0,0,0,.75.75h6.38A.75.75,0,0,0,16.92,27ZM35.86,40.83l-.12.84L31,40.84c.11-.52.22-1.12.32-1.79q.07-.42.13-.89ZM29,11.31c1.38,0,2.54,1.65,2.55,3.61,0,.32-.21,6.74-.67,13.33-.54,7.73-1.13,11.34-1.55,13v0h0a7.42,7.42,0,0,1-.31,1,7.43,7.43,0,0,1-.31-1h0v-.05c-.42-1.68-1-5.28-1.55-13-.46-6.59-.66-13-.67-13.34C26.48,13,27.65,11.31,29,11.31ZM26.61,38.16c0,.31.09.61.13.89.11.67.21,1.27.32,1.79l-4.76.83-.12-.84Z"/><path class="cls-2" d="M14.08,28.87a.75.75,0,0,0-.75.75v2.63a.75.75,0,1,0,1.5,0V29.62A.75.75,0,0,0,14.08,28.87Z"/><path class="cls-2" d="M14.08,33.68a.75.75,0,0,0-.75.75v.38a.75.75,0,1,0,1.5,0v-.38A.75.75,0,0,0,14.08,33.68Z"/><path class="cls-2" d="M39.62,29.62a.75.75,0,0,0-1.5,0v3.91a.75.75,0,0,0,1.5,0Z"/><path class="cls-2" d="M38.87,35a.75.75,0,0,0-.75.75v1.22a.75.75,0,0,0,1.5,0V35.7A.75.75,0,0,0,38.87,35Z"/><path class="cls-2" d="M19.94,29.62a.75.75,0,0,0-1.5,0v3.91a.75.75,0,0,0,1.5,0Z"/><path class="cls-2" d="M19.18,35a.75.75,0,0,0-.75.75v1.22a.75.75,0,1,0,1.5,0V35.7A.75.75,0,0,0,19.18,35Z"/><path class="cls-2" d="M44.73,29.62a.75.75,0,0,0-1.5,0v2.63a.75.75,0,0,0,1.5,0Z"/><path class="cls-2" d="M44,33.68a.75.75,0,0,0-.75.75v.38a.75.75,0,0,0,1.5,0v-.38A.75.75,0,0,0,44,33.68Z"/></g></g></svg>