<svg xmlns="http://www.w3.org/2000/svg" viewBox="0 0 56.78 56.78"><defs><style>.cls-1,.cls-3{fill:none;stroke-miterlimit:10;}.cls-1{stroke:#0d6334;stroke-width:0.25px;}.cls-2{fill:#0f3d1f;}.cls-3{stroke:#0f3d1f;}</style></defs><title>Asset 10</title><g id="Layer_2" data-name="Layer 2"><g id="Layer_3" data-name="Layer 3"><circle class="cls-1" cx="28.39" cy="28.39" r="28.27"/><path class="cls-2" d="M32.34,19.28,31,18.91a5.93,5.93,0,0,0,1.38-2.17c.44-.11.85-.51.92-1.39s-.17-1.2-.49-1.36c0-.1.5-2.89-1.34-3.61a2.76,2.76,0,0,0-4.19-.74A4.92,4.92,0,0,0,26,10.87,5.46,5.46,0,0,0,25.13,14c-.34.15-.61.51-.54,1.39s.5,1.31,1,1.4a5.78,5.78,0,0,0,1.36,2.16l-1.4.37a4.52,4.52,0,0,0-3.22,4.43v2.51a1.29,1.29,0,0,0,1.21,1.32H34.37a1.24,1.24,0,0,0,1.15-1.32V23.71A4.49,4.49,0,0,0,32.34,19.28Zm-6.48-4.87c0-.27,0-.53,0-.76a5.56,5.56,0,0,0,4.64-1.89A6.58,6.58,0,0,1,32,15C31.77,17,30.5,19,29,19,27.24,19,25.86,16.5,25.86,14.41Zm9,11.82a.48.48,0,0,1-.44.51H33.31V25.67a.2.2,0,1,0-.39,0v1.07H30.42l-1-4.51a.52.52,0,0,0,.46-.65l-.2-.89a.49.49,0,0,0-.48-.4H28.7a.49.49,0,0,0-.48.4l-.2.89a.52.52,0,0,0,.46.65l-1,4.51H24.9V25.67a.18.18,0,1,0-.36,0v1.07h-1a.5.5,0,0,1-.46-.51V23.71a3.73,3.73,0,0,1,2.65-3.66l2-.55a2.65,2.65,0,0,0,1.23.31,2.58,2.58,0,0,0,1.2-.31l2,.55a3.72,3.72,0,0,1,2.64,3.66Z"/><path class="cls-2" d="M26,23.64a.46.46,0,0,0-.72,0l-.5.58a.22.22,0,0,0,.15.37h1.41a.22.22,0,0,0,.15-.37Z"/><path class="cls-2" d="M28.74,15.44h.37a1.13,1.13,0,0,0,1.1,1.06,1.15,1.15,0,0,0,1.1-1.19c0-.76-.64-.76-1.1-.76s-.94,0-1.07.5h-.42c-.13-.53-.67-.5-1.07-.5s-1.1,0-1.1.76a1.15,1.15,0,0,0,1.1,1.19A1.14,1.14,0,0,0,28.74,15.44Zm1.46-.5c.61,0,.74.06.74.36a.74.74,0,1,1-1.47,0C29.47,15,29.59,14.93,30.2,14.93Zm-3.3.36c0-.3.12-.36.74-.36s.74.06.74.36a.74.74,0,1,1-1.47,0Z"/><path class="cls-2" d="M16.82,40.85l-.89-.24a3.85,3.85,0,0,0,.89-1.41c.29-.07.55-.33.6-.9s-.11-.78-.32-.88c0-.06.32-1.87-.87-2.34a1.79,1.79,0,0,0-2.72-.48,3.19,3.19,0,0,0-.84.8,3.54,3.54,0,0,0-.53,2c-.22.09-.4.33-.35.9s.33.85.63.91a3.75,3.75,0,0,0,.88,1.4l-.9.24a2.93,2.93,0,0,0-2.08,2.87v1.63a.84.84,0,0,0,.79.86h7a.81.81,0,0,0,.75-.86V43.73A2.91,2.91,0,0,0,16.82,40.85Zm-4.2-3.15c0-.18,0-.34,0-.49a3.6,3.6,0,0,0,3-1.22,4.27,4.27,0,0,1,1,2.12c-.15,1.25-1,2.58-2,2.58S12.62,39.05,12.62,37.7Zm5.8,7.66a.31.31,0,0,1-.28.33h-.69V45a.13.13,0,1,0-.25,0v.69H15.58l-.67-2.92a.34.34,0,0,0,.3-.42l-.13-.58a.32.32,0,0,0-.31-.26h-.31a.32.32,0,0,0-.31.26l-.13.58a.34.34,0,0,0,.3.42l-.67,2.92H12V45a.12.12,0,1,0-.23,0v.69H11.1a.32.32,0,0,1-.3-.33V43.73a2.42,2.42,0,0,1,1.72-2.37L13.83,41a1.72,1.72,0,0,0,.8.2,1.67,1.67,0,0,0,.78-.2l1.31.35a2.41,2.41,0,0,1,1.71,2.37Z"/><path class="cls-2" d="M12.74,43.68a.3.3,0,0,0-.46,0l-.32.38a.14.14,0,0,0,.1.24H13a.14.14,0,0,0,.1-.24Z"/><path class="cls-2" d="M14.49,38.36h.24a.74.74,0,0,0,.71.68.74.74,0,0,0,.72-.77c0-.49-.41-.49-.72-.49s-.61,0-.69.33h-.27c-.09-.34-.43-.33-.69-.33s-.72,0-.72.49a.75.75,0,0,0,.72.77A.74.74,0,0,0,14.49,38.36Zm.95-.33c.4,0,.48,0,.48.23a.48.48,0,1,1-1,0C15,38.08,15,38,15.44,38Zm-2.14.23c0-.2.08-.23.48-.23s.48,0,.48.23a.48.48,0,1,1-1,0Z"/><path class="cls-2" d="M30.77,40.85l-.89-.24a3.85,3.85,0,0,0,.89-1.41c.29-.07.55-.33.6-.9s-.11-.78-.32-.88c0-.06.32-1.87-.87-2.34a1.79,1.79,0,0,0-2.72-.48,3.19,3.19,0,0,0-.84.8,3.54,3.54,0,0,0-.53,2c-.22.09-.4.33-.35.9s.33.85.63.91a3.75,3.75,0,0,0,.88,1.4l-.9.24a2.93,2.93,0,0,0-2.08,2.87v1.63a.84.84,0,0,0,.79.86h7a.81.81,0,0,0,.75-.86V43.73A2.91,2.91,0,0,0,30.77,40.85Zm-4.2-3.15c0-.18,0-.34,0-.49a3.6,3.6,0,0,0,3-1.22,4.27,4.27,0,0,1,1,2.12c-.15,1.25-1,2.58-2,2.58S26.57,39.05,26.57,37.7Zm5.8,7.66a.31.31,0,0,1-.28.33H31.4V45a.13.13,0,1,0-.25,0v.69H29.53l-.67-2.92a.34.34,0,0,0,.3-.42L29,41.77a.32.32,0,0,0-.31-.26h-.31a.32.32,0,0,0-.31.26l-.13.58a.34.34,0,0,0,.3.42l-.67,2.92H25.95V45a.12.12,0,1,0-.23,0v.69H25a.32.32,0,0,1-.3-.33V43.73a2.42,2.42,0,0,1,1.72-2.37L27.78,41a1.72,1.72,0,0,0,.8.2,1.67,1.67,0,0,0,.78-.2l1.31.35a2.41,2.41,0,0,1,1.71,2.37Z"/><path class="cls-2" d="M26.68,43.68a.3.3,0,0,0-.46,0l-.32.38a.14.14,0,0,0,.1.24h.92a.14.14,0,0,0,.1-.24Z"/><path class="cls-2" d="M28.44,38.36h.24a.74.74,0,0,0,.71.68.74.74,0,0,0,.72-.77c0-.49-.41-.49-.72-.49s-.61,0-.69.33h-.27c-.09-.34-.43-.33-.69-.33s-.72,0-.72.49a.75.75,0,0,0,.72.77A.74.74,0,0,0,28.44,38.36Zm.95-.33c.4,0,.48,0,.48.23a.48.48,0,1,1-1,0C28.91,38.08,29,38,29.38,38Zm-2.14.23c0-.2.08-.23.48-.23s.48,0,.48.23a.48.48,0,1,1-1,0Z"/><path class="cls-2" d="M43.78,40.85l-.89-.24a3.85,3.85,0,0,0,.89-1.41c.29-.07.55-.33.6-.9s-.11-.78-.32-.88c0-.06.32-1.87-.87-2.34a1.79,1.79,0,0,0-2.72-.48,3.19,3.19,0,0,0-.84.8,3.54,3.54,0,0,0-.53,2c-.22.09-.4.33-.35.9s.33.85.63.91a3.75,3.75,0,0,0,.88,1.4l-.9.24a2.93,2.93,0,0,0-2.08,2.87v1.63a.84.84,0,0,0,.79.86h7a.81.81,0,0,0,.75-.86V43.73A2.91,2.91,0,0,0,43.78,40.85Zm-4.2-3.15c0-.18,0-.34,0-.49a3.6,3.6,0,0,0,3-1.22,4.27,4.27,0,0,1,1,2.12c-.15,1.25-1,2.58-2,2.58S39.58,39.05,39.58,37.7Zm5.8,7.66a.31.31,0,0,1-.28.33h-.69V45a.13.13,0,1,0-.25,0v.69H42.54l-.67-2.92a.34.34,0,0,0,.3-.42L42,41.77a.32.32,0,0,0-.31-.26h-.31a.32.32,0,0,0-.31.26l-.13.58a.34.34,0,0,0,.3.42l-.67,2.92H39V45a.12.12,0,1,0-.23,0v.69h-.67a.32.32,0,0,1-.3-.33V43.73a2.42,2.42,0,0,1,1.72-2.37L40.79,41a1.72,1.72,0,0,0,.8.2,1.67,1.67,0,0,0,.78-.2l1.31.35a2.41,2.41,0,0,1,1.71,2.37Z"/><path class="cls-2" d="M39.69,43.68a.3.3,0,0,0-.46,0l-.32.38a.14.14,0,0,0,.1.24h.92a.14.14,0,0,0,.1-.24Z"/><path class="cls-2" d="M41.45,38.36h.24a.74.74,0,0,0,.71.68.74.74,0,0,0,.72-.77c0-.49-.41-.49-.72-.49s-.61,0-.69.33h-.27c-.09-.34-.43-.33-.69-.33s-.72,0-.72.49a.75.75,0,0,0,.72.77A.74.74,0,0,0,41.45,38.36ZM42.4,38c.4,0,.48,0,.48.23a.48.48,0,1,1-1,0C41.92,38.08,42,38,42.4,38Zm-2.14.23c0-.2.08-.23.48-.23s.48,0,.48.23a.48.48,0,1,1-1,0Z"/><polyline class="cls-3" points="28.63 28.09 28.63 32.24 41.84 32.24 41.84 33.36"/><polyline class="cls-3" points="14.34 33.36 14.34 32.27 28.65 32.27 28.65 33.61"/></g></g></svg>