<svg xmlns="http://www.w3.org/2000/svg" viewBox="0 0 56.78 56.78"><defs><style>.cls-1,.cls-3{fill:none;stroke-miterlimit:10;}.cls-1{stroke:#0d6334;stroke-width:0.25px;}.cls-2{fill:#0f3d1f;}.cls-3{stroke:#0f3d1f;stroke-width:3px;}</style></defs><title>Asset 9</title><g id="Layer_2" data-name="Layer 2"><g id="Layer_3" data-name="Layer 3"><circle class="cls-1" cx="28.39" cy="28.39" r="28.27"/><path class="cls-2" d="M14.74,29.37,28.41,44.13,42.07,29.37a8.62,8.62,0,0,0,0-11.31l-.22-.23a6.47,6.47,0,0,0-9.88,0l-2.63,2.92a1.21,1.21,0,0,1-.92.4,1.17,1.17,0,0,1-.93-.4l-2.63-2.92a6.69,6.69,0,0,0-5-2.29,6.6,6.6,0,0,0-4.94,2.29l-.19.23a8.6,8.6,0,0,0,0,11.31ZM28.41,47.18h0a1.22,1.22,0,0,1-.93-.4L12.91,31.06h0a11,11,0,0,1-2.75-7.33,10.88,10.88,0,0,1,2.75-7.33l.23-.24a9.09,9.09,0,0,1,6.76-3.08,9.25,9.25,0,0,1,6.81,3.08l1.73,1.93,1.72-1.93a9,9,0,0,1,13.54,0l.23.24a10.79,10.79,0,0,1,2.75,7.33,10.92,10.92,0,0,1-2.75,7.33L29.3,46.78a1.17,1.17,0,0,1-.89.4Z"/><polyline class="cls-3" points="13.48 29.53 21.88 29.52 27.96 23.99 30.09 29.52 32.22 35.07 34.45 29.53 43.2 29.53"/></g></g></svg>