<svg xmlns="http://www.w3.org/2000/svg" viewBox="0 0 56.78 56.78"><defs><style>.cls-1,.cls-3,.cls-4{fill:none;}.cls-1{stroke:#0d6334;}.cls-1,.cls-2,.cls-3,.cls-4{stroke-miterlimit:10;}.cls-1,.cls-2{stroke-width:0.25px;}.cls-2{fill:#0f3d1f;}.cls-2,.cls-3,.cls-4{stroke:#0f3d1f;}.cls-3{stroke-width:0.5px;}.cls-4{stroke-width:2px;}</style></defs><title>Asset 11</title><g id="Layer_2" data-name="Layer 2"><g id="Layer_3" data-name="Layer 3"><circle class="cls-1" cx="28.39" cy="28.39" r="28.27"/><path class="cls-2" d="M24.46,22.55a3.49,3.49,0,1,0,2.35,4.33A3.49,3.49,0,0,0,24.46,22.55Zm-1.7,5.74a2.5,2.5,0,1,1,3.11-1.69A2.5,2.5,0,0,1,22.76,28.29Z"/><path class="cls-2" d="M29.69,25.85l.76-.87-.32-1.34-1-.42q-.11-.24-.25-.47l.22-1.14-.95-1L27,20.77l-.46-.29-.37-1.09L24.85,19l-.88.69-.54,0-.87-.76-1.34.32-.42,1c-.16.08-.32.16-.47.25L19.2,20.3l-1,.95.16,1.11c-.1.15-.2.3-.29.46L17,23.19l-.39,1.32.69.88c0,.18,0,.36,0,.54l-.76.87.32,1.34,1,.42q.11.24.25.47l-.22,1.14.95,1L19.94,31l.46.29.37,1.09,1.32.39.88-.69.54,0,.87.76,1.34-.32.42-1,.47-.25,1.14.22,1-.95-.16-1.11c.1-.15.2-.3.29-.45L30,28.59l.39-1.32-.69-.88Q29.69,26.12,29.69,25.85Zm-7.48,4.31a4.45,4.45,0,1,1,5.54-3A4.45,4.45,0,0,1,22.21,30.16Z"/><path class="cls-2" d="M36.2,25.17A2.38,2.38,0,1,0,38,28,2.38,2.38,0,0,0,36.2,25.17Zm-.86,4a1.71,1.71,0,1,1,2-1.31A1.71,1.71,0,0,1,35.33,29.17Z"/><path class="cls-2" d="M40.26,29l.2-.92-.52-.57c0-.12,0-.25,0-.37l.47-.63-.29-.9-.73-.23q-.09-.16-.19-.31l.09-.79-.7-.63-.75.16-.32-.17-.31-.73-.92-.2-.57.52h-.37l-.63-.47-.9.29-.23.73-.31.2-.79-.09-.63.7.16.75c-.06.11-.12.21-.17.32l-.73.31-.2.92.52.57a3.57,3.57,0,0,0,0,.37l-.47.63.29.9.73.23c.06.1.12.21.19.31l-.09.79.7.63.75-.16.33.17.31.72.92.2.57-.52H36l.63.47.9-.29.23-.73.31-.19.79.09.63-.7-.17-.75a3.66,3.66,0,0,0,.17-.33Zm-5.21,1.47a3,3,0,1,1,3.62-2.34A3,3,0,0,1,35.05,30.48Z"/><path class="cls-2" d="M36.56,35.84H19.91c-4.11,0-7.44,2.23-7.44,5H44C44,38.07,40.67,35.84,36.56,35.84Z"/><rect class="cls-3" x="14.08" y="17.27" width="28.63" height="17.24"/><rect class="cls-4" x="12.75" y="15.99" width="31.02" height="19.85"/></g></g></svg>