<svg xmlns="http://www.w3.org/2000/svg" viewBox="0 0 56.53 56.53"><defs><style>.cls-1{fill:#4cb967;}.cls-2{fill:#fff;}</style></defs><title>Asset 20</title><g id="Layer_2" data-name="Layer 2"><g id="Layer_3" data-name="Layer 3"><circle class="cls-1" cx="28.27" cy="28.27" r="28.27"/><path class="cls-2" d="M40.71,22.94l.49.14.2,0a.75.75,0,0,0,.2-1.47l-.49-.14a.75.75,0,1,0-.41,1.45Z"/><path class="cls-2" d="M20.24,26.84a.75.75,0,0,0-.75-.75H18.24a.75.75,0,1,0,0,1.5h1.24A.75.75,0,0,0,20.24,26.84Z"/><path class="cls-2" d="M16.8,26.84a.75.75,0,0,0-.75-.75H10.42V24.81L25.09,20.7c.08,1.63.18,3.48.3,5.4H21.7a.75.75,0,0,0,0,1.5h3.78q.05.74.1,1.49c.21,2.85.44,5.3.68,7.33l-5.4,3.27a.75.75,0,0,0-.36.75l.29,2.1a.75.75,0,0,0,.74.65h.13l5.64-1c.42,1.31.91,1.83,1.59,1.83s1.17-.52,1.59-1.83l5.64,1h.13a.75.75,0,0,0,.74-.65l.29-2.1a.75.75,0,0,0-.36-.75l-5.41-3.27c.24-2,.47-4.48.68-7.33q.05-.75.1-1.49H48.13a.75.75,0,0,0,.75-.75V24.24a.75.75,0,0,0-.55-.72l-4.61-1.29a.75.75,0,0,0-.4,1.45l4.06,1.14v1.29h-15c.12-1.92.22-3.77.3-5.4l5.83,1.63.2,0a.75.75,0,0,0,.2-1.47l-6.16-1.73c.11-2.57.17-4.29.17-4.32v0C33,12,31.13,9.68,28.9,9.68s-4.05,2.3-4.05,5.13v0s.05,1.75.17,4.32L9.47,23.51a.75.75,0,0,0-.55.72v2.61a.75.75,0,0,0,.75.75H16A.75.75,0,0,0,16.8,26.84ZM35.74,40.71l-.12.84-4.76-.83c.11-.52.22-1.12.32-1.79q.07-.42.13-.89ZM28.9,11.18c1.38,0,2.54,1.65,2.55,3.61,0,.32-.21,6.74-.67,13.33-.54,7.73-1.13,11.34-1.55,13v0h0a7.42,7.42,0,0,1-.31,1,7.43,7.43,0,0,1-.31-1h0v-.05c-.42-1.68-1-5.28-1.55-13-.46-6.59-.66-13-.67-13.34C26.36,12.84,27.52,11.18,28.9,11.18ZM26.48,38c0,.31.09.61.13.89.11.67.21,1.27.32,1.79l-4.76.83-.12-.84Z"/><path class="cls-2" d="M14,28.75a.75.75,0,0,0-.75.75v2.63a.75.75,0,1,0,1.5,0V29.5A.75.75,0,0,0,14,28.75Z"/><path class="cls-2" d="M14,33.55a.75.75,0,0,0-.75.75v.38a.75.75,0,1,0,1.5,0V34.3A.75.75,0,0,0,14,33.55Z"/><path class="cls-2" d="M39.49,29.5a.75.75,0,0,0-1.5,0V33.4a.75.75,0,0,0,1.5,0Z"/><path class="cls-2" d="M38.74,34.83a.75.75,0,0,0-.75.75V36.8a.75.75,0,0,0,1.5,0V35.58A.75.75,0,0,0,38.74,34.83Z"/><path class="cls-2" d="M19.81,29.5a.75.75,0,0,0-1.5,0V33.4a.75.75,0,0,0,1.5,0Z"/><path class="cls-2" d="M19.06,34.83a.75.75,0,0,0-.75.75V36.8a.75.75,0,1,0,1.5,0V35.58A.75.75,0,0,0,19.06,34.83Z"/><path class="cls-2" d="M44.6,29.5a.75.75,0,0,0-1.5,0v2.63a.75.75,0,0,0,1.5,0Z"/><path class="cls-2" d="M43.85,33.55a.75.75,0,0,0-.75.75v.38a.75.75,0,0,0,1.5,0V34.3A.75.75,0,0,0,43.85,33.55Z"/></g></g></svg>