<svg xmlns="http://www.w3.org/2000/svg" viewBox="0 0 55.69 56.78"><defs><style>.cls-1{fill:none;stroke:#0d6334;stroke-miterlimit:10;stroke-width:0.25px;}.cls-2{fill:#0f3d1f;}</style></defs><title>Asset 16</title><g id="Layer_2" data-name="Layer 2"><g id="Layer_3" data-name="Layer 3"><ellipse class="cls-1" cx="27.84" cy="28.39" rx="27.72" ry="28.27"/><path class="cls-2" d="M45.28,28.35c-1.51.2-2.76-1.11-3.4-3a15.3,15.3,0,0,0-2.62-5c-.12-.18-.24-.36-.37-.54a9.19,9.19,0,0,1,2.18-4.54,4.68,4.68,0,0,0-4.45,2.19,15.3,15.3,0,0,0-9.52-3.18c-7.41,0-13.46,4.88-13.79,11a11.41,11.41,0,0,0-.06,2.06c-.93,1.65-2,.21-2.24-.3-.38-.71-1-1.81-1.94-1.07,1.59-.38,1.12,1.62,2.43,2.76a1.43,1.43,0,0,0,1.89-.12,19.89,19.89,0,0,0,3,7.24,10.6,10.6,0,0,1,1.29,5.43H22s2.1-3.79,5.17-3.79c3.39,0,5.17,3.79,5.17,3.79h3.71c1-7.41,6.6-8,8.92-8A14.27,14.27,0,0,1,45.28,28.35Z"/></g></g></svg>