<svg xmlns="http://www.w3.org/2000/svg" viewBox="0 0 55.69 56.78"><defs><style>.cls-1{fill:none;stroke:#0d6334;stroke-miterlimit:10;stroke-width:0.25px;}.cls-2{fill:#0f3d1f;}</style></defs><title>Asset 17</title><g id="Layer_2" data-name="Layer 2"><g id="Layer_3" data-name="Layer 3"><ellipse class="cls-1" cx="27.84" cy="28.39" rx="27.72" ry="28.27"/><g id="_Group_" data-name="&lt;Group&gt;"><path id="_Path_" data-name="&lt;Path&gt;" class="cls-2" d="M27.66,33.61,17,30.72V36a2.45,2.45,0,0,0,.32,1l.06,0,0,0c1.23,1,5,2.07,10.45,2.07s9.21-1.07,10.45-2.07l0,0,.05,0a2.5,2.5,0,0,0,.32-1V30.72L28,33.61A.69.69,0,0,1,27.66,33.61Z"/><path id="_Path_2" data-name="&lt;Path&gt;" class="cls-2" d="M14.45,17.88l-7.5,8.62,9.5,2.58h0l11.39,3.09,11.39-3.09h0l.95-.26L27.63,24.89a.73.73,0,0,1-.47-.9.71.71,0,0,1,.89-.48l14.73,4.6,6-1.62-7.5-8.62Z"/><path id="_Path_3" data-name="&lt;Path&gt;" class="cls-2" d="M42.25,42.95V29.75H40.71V43a1.46,1.46,0,0,0-.64,1.21h0a1.46,1.46,0,0,0,.64,1.21v1.57a.77.77,0,1,0,1.54,0V45.39a1.46,1.46,0,0,0,.66-1.22h0A1.46,1.46,0,0,0,42.25,42.95Z"/></g></g></g></svg>