<svg xmlns="http://www.w3.org/2000/svg" xmlns:xlink="http://www.w3.org/1999/xlink" viewBox="0 0 42.4 33.2"><defs><style>.cls-1{fill:url(#linear-gradient);}</style><linearGradient id="linear-gradient" y1="16.6" x2="42.4" y2="16.6" gradientUnits="userSpaceOnUse"><stop offset="0" stop-color="#44ad51"/><stop offset="1" stop-color="#3d8647"/></linearGradient></defs><title>Asset 125</title><g id="Layer_2" data-name="Layer 2"><g id="LOGO"><path class="cls-1" d="M42.4,0H.72A.72.72,0,0,0,0,.72v.5a.72.72,0,0,0,.72.72H2.36a.72.72,0,0,1,.72.72V26.54a.72.72,0,0,0,.72.72H17.72a.72.72,0,0,1,.51,1.23L14.75,32a.72.72,0,0,0,0,1h0a.72.72,0,0,0,1,0l4.92-4.92a.72.72,0,0,1,1,0l4.86,4.86a.72.72,0,0,0,1,0h0a.72.72,0,0,0,0-1L24.17,28.5a.72.72,0,0,1,.51-1.23H38.6a.72.72,0,0,0,.72-.72V2.66A.72.72,0,0,1,40,1.94h1.64a.72.72,0,0,0,.72-.72V0Z"/></g></g></svg>