<svg xmlns="http://www.w3.org/2000/svg" xmlns:xlink="http://www.w3.org/1999/xlink" viewBox="0 0 31.09 34.4"><defs><style>.cls-1{fill:url(#linear-gradient);}</style><linearGradient id="linear-gradient" y1="17.2" x2="31.09" y2="17.2" gradientUnits="userSpaceOnUse"><stop offset="0" stop-color="#44ad51"/><stop offset="1" stop-color="#3d8647"/></linearGradient></defs><title>Asset 124</title><g id="Layer_2" data-name="Layer 2"><g id="LOGO"><path class="cls-1" d="M24.09,0A1.53,1.53,0,0,0,23,.53L21.45,2.37a1.89,1.89,0,0,1-2.3.35,12.37,12.37,0,1,0,4.48,4.11,2.51,2.51,0,0,1-.4-1.06c-.08-.62.63-1.49,1.18-1.37a1.41,1.41,0,0,1,.82.57A14.74,14.74,0,0,1,13.29,28.35,14.61,14.61,0,0,1,2.64,23.8,1.53,1.53,0,0,0,.43,25.92a17.62,17.62,0,0,0,10.3,5.31,7.31,7.31,0,0,1,1.5.26.47.47,0,0,0,0,.11c0,.53-.69,1-1.53,1H7.48c-.85,0-1.53.42-1.53.93s.69.93,1.53.93h11.3c.85,0,1.53-.42,1.53-.93s-.69-.93-1.53-.93H15.59c-.85,0-1.53-.43-1.53-1a.42.42,0,0,0,0-.1,7.94,7.94,0,0,1,1.5-.23A17.8,17.8,0,0,0,25.22.4,1.53,1.53,0,0,0,24.09,0Z"/></g></g></svg>