<svg xmlns="http://www.w3.org/2000/svg" xmlns:xlink="http://www.w3.org/1999/xlink" viewBox="0 0 30.42 40.55"><defs><style>.cls-1{fill:url(#linear-gradient);}</style><linearGradient id="linear-gradient" y1="20.28" x2="30.42" y2="20.28" gradientUnits="userSpaceOnUse"><stop offset="0" stop-color="#44ad51"/><stop offset="1" stop-color="#3d8647"/></linearGradient></defs><title>Asset 128</title><g id="Layer_2" data-name="Layer 2"><g id="LOGO"><path class="cls-1" d="M27,5.07H25.35V3.32A3.32,3.32,0,0,0,21.21.1l-18,5A3.37,3.37,0,0,0,0,8.45V37.17a3.38,3.38,0,0,0,3.38,3.38H27a3.38,3.38,0,0,0,3.38-3.38V8.45A3.38,3.38,0,0,0,27,5.07ZM9.48,30.65h-2V25.93l2,.48Zm3,0h-2V26.53l2-.07Zm3,0h-2V26.28l2-.64Zm3,0h-2V25.28a.24.24,0,0,1,.13-.25,9.84,9.84,0,0,0,1.72-1.23l.15-.13Zm3,0h-2V22.73a.49.49,0,0,1,.09-.28,9.78,9.78,0,0,0,1.84-3.92.6.6,0,0,1,0-.14l0,0Zm-.44-12.76c0,.24-.09.45-.14.69a9.3,9.3,0,0,1-5,6.26A10.55,10.55,0,0,1,10.4,26a10.55,10.55,0,0,1-2.76-.55c-.1,0-.19-.08-.16-.21s.13-.13.23-.12a8.49,8.49,0,0,0,1.75.09A8,8,0,0,0,14,23.4,8.78,8.78,0,0,0,17.2,18a.82.82,0,0,0,0-.13h-2.1v0L19,14.45l3.94,3.44ZM23.66,5.07H9.6l12-3.33a1.65,1.65,0,0,1,2,1.58Z"/></g></g></svg>