<svg xmlns="http://www.w3.org/2000/svg" xmlns:xlink="http://www.w3.org/1999/xlink" viewBox="0 0 208.05 69.36"><defs><style>.cls-1{fill:none;}.cls-2{fill:#18a34a;}.cls-3{fill:#666;}.cls-4{fill:#007052;}.cls-5{opacity:0.5;}.cls-6{clip-path:url(#clip-path);}.cls-7{clip-path:url(#clip-path-2);}.cls-8{clip-path:url(#clip-path-3);}.cls-9{clip-path:url(#clip-path-4);}.cls-10{clip-path:url(#clip-path-5);}.cls-11{clip-path:url(#clip-path-6);}</style><clipPath id="clip-path" transform="translate(0)"><rect class="cls-1" y="25.55" width="27.61" height="24.33"/></clipPath><clipPath id="clip-path-2" transform="translate(0)"><rect class="cls-1" y="25.55" width="27.61" height="24.33"/></clipPath><clipPath id="clip-path-3" transform="translate(0)"><rect class="cls-1" x="11.07" y="25.55" width="27.6" height="24.33"/></clipPath><clipPath id="clip-path-4" transform="translate(0)"><rect class="cls-1" x="11.07" y="25.55" width="27.6" height="24.33"/></clipPath><clipPath id="clip-path-5" transform="translate(0)"><rect class="cls-1" x="22.11" y="25.55" width="27.6" height="24.33"/></clipPath><clipPath id="clip-path-6" transform="translate(0)"><rect class="cls-1" x="22.11" y="25.55" width="27.6" height="24.33"/></clipPath></defs><title>Asset 126</title><g id="Layer_2" data-name="Layer 2"><g id="LOGO"><polygon class="cls-2" points="58.23 12.16 64.67 12.16 64.67 14.66 58.23 14.66 58.23 22.63 55.47 22.63 55.47 4.98 58.2 4.98 66.07 4.98 66.07 7.45 58.23 7.45 58.23 12.16"/><rect class="cls-2" x="68.14" y="4.98" width="2.76" height="17.65"/><polygon class="cls-2" points="77.32 11.28 77.32 22.63 74.56 22.63 74.56 4.15 85.64 16.3 85.64 4.98 88.42 4.98 88.42 23.43 77.32 11.28"/><path class="cls-2" d="M101.67,18.85H95.39l-1.5,3.78h-3L98.53,4.17l7.66,18.46h-3Zm-1-2.47L98.53,11l-2.14,5.37Z" transform="translate(0)"/><polygon class="cls-2" points="111.3 11.49 111.3 22.63 108.59 22.63 108.59 4.48 119.48 16.41 119.48 5.3 122.21 5.3 122.21 23.42 111.3 11.49"/><path class="cls-2" d="M135,19.15a5,5,0,0,1-3.9,3.38,5.38,5.38,0,0,1-1.05.09,5.63,5.63,0,0,1-2.06-.37A6.84,6.84,0,0,1,125.13,20l2.15-1.68A3.86,3.86,0,0,0,129,19.71a2.67,2.67,0,0,0,1.59.14,2.3,2.3,0,0,0,1.82-1.45,2,2,0,0,0-.79-2c-.77-.72-2-2-2.13-2.05l-2.12-2A5,5,0,0,1,126,10.3a3.71,3.71,0,0,1,0-2.19,3.94,3.94,0,0,1,1.28-1.94,4.51,4.51,0,0,1,2.08-1,4.6,4.6,0,0,1,2.57.19,5.83,5.83,0,0,1,2.36,1.75l-2.12,1.7a2.31,2.31,0,0,0-2.29-1,1.59,1.59,0,0,0-1.26,1c-.09.33-.07.86.65,1.56l2.9,2.78c.42.42.93.91,1.31,1.26A5.18,5.18,0,0,1,135,16.72a4.1,4.1,0,0,1,0,2.43M130.22,3.53,127.79.82,128.7,0l1.49,1.66L131.57,0l.93.77Z" transform="translate(0)"/><path class="cls-2" d="M139.75,21.25a5.16,5.16,0,0,1-1.54-1.87,5.85,5.85,0,0,1-.58-2.64V5.3h2.71V16.74a2.82,2.82,0,0,0,1.07,2.36,4.33,4.33,0,0,0,2.64.82,4.43,4.43,0,0,0,2.64-.82,2.8,2.8,0,0,0,1.05-2.36V5.3h2.73V16.74a6.15,6.15,0,0,1-.58,2.64,5.65,5.65,0,0,1-1.54,1.87,7.39,7.39,0,0,1-8.59,0" transform="translate(0)"/><path class="cls-3" d="M54.87,69.36c-.27,0-1-.2-1-.85a.73.73,0,0,1,.82-.71,1.22,1.22,0,0,1,1.13.77,1.43,1.43,0,0,0,.74-.9,27.46,27.46,0,0,0,.21-5.36c0-.36,0-.65,0-.84v-1c0-.46,0-2.79,0-3.37,0-.3-.13-.47-.67-.47h-.63c-.08,0-.12,0-.12-.09v-.39c0-.08,0-.12.12-.12h.2c.27,0,.83,0,1.84,0,.86,0,1.36,0,1.65,0h.28c.06,0,.14,0,.14.11v.36c0,.1,0,.14-.14.14h-.71c-.37,0-.49.1-.51.39s0,2.1,0,3.79v.65c0,1.27,0,2.34,0,3,0,.27,0,.47,0,.56a4.38,4.38,0,0,1-.53,2.4,3.49,3.49,0,0,1-2.67,2m14.76-3.08h-.29c-.25,0-.64,0-1.42,0s-1.27,0-1.59,0H65.9a.14.14,0,0,1-.14-.15V65.8c0-.12.08-.12.15-.12h.36c.2,0,.32,0,.39-.12a.47.47,0,0,0,0-.4c-.12-.52-.7-2.35-.9-2.91H62.29c-.12.34-.91,2.51-1,2.81v.1a1.9,1.9,0,0,0,0,.21c0,.19.17.29.46.29h.67c.07,0,.16,0,.16.12v.33c0,.1,0,.15-.14.15h-.32c-.3,0-.74,0-1.31,0-.72,0-1.1,0-1.32,0h-.23c-.08,0-.12,0-.12-.14V65.8a.12.12,0,0,1,.14-.12h.5c.39,0,.6-.16.81-.64.09-.22,1.13-2.84,1.55-4l.52-1.4c.37-1,.79-2.11.86-2.34v0a.51.51,0,0,0,0-.43.38.38,0,0,1-.1-.2s0-.11.14-.15a2.88,2.88,0,0,0,1.17-.71l0,0c.06-.06.11-.11.18-.11s.14.11.18.26c.13.43.46,1.39.8,2.41s.72,2.13.86,2.6C67.1,62,68,64.61,68.24,65a1.06,1.06,0,0,0,1,.63h.47c.12,0,.14.08.14.12v.36c0,.11-.1.13-.17.13m-5.47-8.94s-.08,0-.14.19-1.43,3.85-1.53,4.2l3.13,0c-.15-.41-1.31-4-1.38-4.18l0-.06c0-.05,0-.12-.07-.12" transform="translate(0)"/><path class="cls-3" d="M94.89,66.44c-.17,0-.26-.16-.32-.31l-1.11-2.9-.11-.31c-.19-.52-.54-1.48-.61-1.65-.18-.4-.31-.52-.57-.52h-.28c-.11,0-.11-.11-.11-.16v-.26c0-.13.05-.14.18-.14h.18c.17,0,.46,0,1,0s.86,0,1.07,0h.22c.12,0,.17,0,.17.14v.26c0,.06,0,.16-.12.16h-.29A.23.23,0,0,0,94,61a12,12,0,0,0,.46,1.68c.08.27.7,1.91.85,2.21l0,0c.43-1.1,1.22-3,1.35-3.54a.6.6,0,0,0,0-.5.24.24,0,0,0-.21-.09h-.28c-.05,0-.08-.06-.08-.16v-.26c0-.06,0-.14.11-.14h.27c.2,0,.47,0,.87,0s.65,0,.83,0h.2c.13,0,.15,0,.15.15v.24c0,.1,0,.16-.09.16H98.1a.56.56,0,0,0-.43.15,15,15,0,0,0-1.14,2.28c-.17.44-1.23,2.84-1.29,2.93s-.19.34-.36.34m11.9,0a1.08,1.08,0,0,1-1-1,2.94,2.94,0,0,1-1.42.89,2.62,2.62,0,0,1-.85.09c-.3,0-.88-.25-.88-1.21,0-.77.43-1.3,1.44-1.75a9.17,9.17,0,0,0,1.61-.83v-1a1.3,1.3,0,0,0-.18-.67,1.06,1.06,0,0,0-.84-.31,1.59,1.59,0,0,0-.91.29c-.13.12-.11.26-.08.42a1.5,1.5,0,0,1,0,.22c0,.58-.24.84-.78.84-.25,0-.36-.15-.36-.48a1.81,1.81,0,0,1,1-1.36,3.19,3.19,0,0,1,1.75-.5,1.49,1.49,0,0,1,1.16.39,1.28,1.28,0,0,1,.32,1v3c0,.94.23,1,.41,1a.64.64,0,0,0,.48-.21s.07-.08.11-.08l.06,0,.14.11c.07.07.06.16,0,.29a1.2,1.2,0,0,1-1.13.71m-1.15-3.29a4.27,4.27,0,0,1-.49.26c-.62.3-1.38.67-1.38,1.55a.68.68,0,0,0,.72.76c.42,0,1.15-.5,1.15-.87ZM89.48,66.4a1.48,1.48,0,0,1-1.41-1.24c0-.37,0-1,0-1.48,0-.27,0-.49,0-.56v-.32c0-.25,0-1.21,0-1.81l-.85,0c-.15,0-.24-.07-.24-.19s.08-.17.24-.26a6.46,6.46,0,0,0,1.65-1.8.21.21,0,0,1,.22-.16c.11,0,.17.08.17.23l-.07,1.42,2,0a.14.14,0,0,1,.11.06.11.11,0,0,1,0,.11l-.14.49A.14.14,0,0,1,91,61H89.2c0,.63,0,1.32,0,2v1.43c0,1.14.55,1.23.72,1.23a2,2,0,0,0,.93-.18l.09,0a.14.14,0,0,1,.11.06l.07.13a.14.14,0,0,1,0,.18,2.43,2.43,0,0,1-1.6.58m-3.79,0a1.09,1.09,0,0,1-1-1,2.93,2.93,0,0,1-1.41.89,2.64,2.64,0,0,1-.85.09c-.3,0-.88-.25-.88-1.21,0-.77.43-1.3,1.44-1.75a9.14,9.14,0,0,0,1.61-.83v-1a1.34,1.34,0,0,0-.18-.68,1.07,1.07,0,0,0-.84-.31,1.57,1.57,0,0,0-.91.29c-.14.12-.11.26-.09.42a1.83,1.83,0,0,1,0,.22c0,.58-.24.84-.78.84-.25,0-.36-.15-.36-.48a1.81,1.81,0,0,1,1-1.36,3.19,3.19,0,0,1,1.75-.5,1.48,1.48,0,0,1,1.16.39,1.28,1.28,0,0,1,.32,1v3c0,.94.23,1,.4,1a.66.66,0,0,0,.48-.21c0-.05.07-.08.11-.08l.06,0,.14.11c.07.07.07.16,0,.29a1.21,1.21,0,0,1-1.13.71m-1.15-3.29a4.52,4.52,0,0,1-.49.26c-.62.3-1.38.67-1.38,1.55a.68.68,0,0,0,.72.76c.42,0,1.15-.5,1.15-.87Zm-4.45,3.17h0c-.17,0-1.25,0-2.57,0l-3.44,0H72.79l-.3,0h-.25c-.11,0-.14,0-.14-.12V65.8c0-.08,0-.12.12-.12h.68c.53,0,.59-.19.59-.36s0-.61,0-1.28c0-1.19,0-2.86,0-3.42v-.8c0-.94,0-2.43,0-2.68s-.1-.49-.51-.49h-.67c-.12,0-.12-.12-.12-.16v-.31c0-.08,0-.12.12-.12h.21c.27,0,.77,0,1.64,0,1.06,0,1.65,0,1.94,0h.17c.13,0,.15.05.15.14v.33c0,.1-.05.14-.17.14h-.86c-.42,0-.48.11-.48.54,0,.06,0,.29,0,.62,0,.76,0,2,0,2.72v1.23c0,.55,0,3.36,0,3.91H77c.78,0,1.3,0,1.47,0,.82-.13,1.68-1.82,1.88-2.38,0,0,0-.09.09-.09h.05l.23.08c.06,0,.06.07,0,.15s-.6,2.42-.7,2.84Zm21.81,0h-.24c-.27,0-.71,0-1.13,0-.58,0-1,0-1.29,0H99a.12.12,0,0,1-.13-.14v-.29c0-.12.09-.14.16-.14h.7c.14,0,.19,0,.21-.27,0-.43,0-.87,0-1.3v-2.1c0-.44-.05-.72-.78-.83-.09,0-.15,0-.15-.12V61c0-.07.06-.1.11-.12a11.33,11.33,0,0,0,1.54-.7.64.64,0,0,1,.28-.09.1.1,0,0,1,.07,0,.23.23,0,0,1,0,.17c0,.24,0,1.16,0,2.33v1.55c0,.55,0,1.07,0,1.23s.07.35.21.35h.66c.11,0,.16,0,.16.15v.24c0,.12,0,.17-.15.17m-1.8-7.81a.83.83,0,0,1-.81-.76.81.81,0,0,1,.89-.76.73.73,0,0,1,.76.72.79.79,0,0,1-.85.81" transform="translate(0)"/><path class="cls-3" d="M111.8,57.83a2,2,0,0,1-4,0,1.93,1.93,0,0,1,2-1.94,1.88,1.88,0,0,1,2,1.94m-.36,0a1.65,1.65,0,1,0-3.3,0,1.65,1.65,0,1,0,3.3,0m-2.37-.35V57c0-.1-.05-.15-.18-.15h-.05a0,0,0,0,1,0,0v-.1a0,0,0,0,1,0,0h1a1,1,0,0,1,.66.19.46.46,0,0,1,.17.36.65.65,0,0,1-.58.63v0a.24.24,0,0,1,.13.1,3.92,3.92,0,0,1,.28.4,1.18,1.18,0,0,0,.29.34.42.42,0,0,0,.25.06s0,0,0,0v.09s0,0,0,0h-.61a1,1,0,0,1-.14-.18s-.2-.3-.24-.36a2.1,2.1,0,0,0-.22-.32.3.3,0,0,0-.22-.13h-.14v.16c0,.19,0,.51,0,.56s0,.13.11.13h.14s0,0,0,0v.09s0,0,0,0h-.88s0,0,0,0v-.07s0,0,0,0h.07c.11,0,.18,0,.18-.18Zm.39.3h.22a.52.52,0,0,0,.56-.51.44.44,0,0,0-.17-.33.71.71,0,0,0-.44-.12h-.17Z" transform="translate(0)"/><path class="cls-2" d="M57.76,32.34h2.85A5.59,5.59,0,0,1,64.93,34a5.81,5.81,0,0,1,1.4,4,5.77,5.77,0,0,1-1.4,4,5.51,5.51,0,0,1-4.32,1.73H58.18v5.86H55.47V32.34Zm6.14,5.72a3.56,3.56,0,0,0-.77-2.36,3.28,3.28,0,0,0-2.52-.93H58.18v6.59h2.43a3.26,3.26,0,0,0,2.52-.91,3.58,3.58,0,0,0,.77-2.38" transform="translate(0)"/><path class="cls-2" d="M80.69,49.67H77.63l-4.37-5.86h-2v5.86H68.57V32.34h5.14A5.5,5.5,0,0,1,78,34.07a5.87,5.87,0,0,1,1.4,4,5.85,5.85,0,0,1-1.4,4,4.82,4.82,0,0,1-2,1.33Zm-7-8.29a3.19,3.19,0,0,0,2.5-.93,4,4,0,0,0,0-4.74,3.18,3.18,0,0,0-2.5-.91H71.28v6.58Z" transform="translate(0)"/><path class="cls-2" d="M92.57,46H86.41l-1.47,3.71h-3l7.54-18.12L97,49.67H94Zm-1-2.43-2.1-5.28-2.1,5.28Z" transform="translate(0)"/><polygon class="cls-2" points="108.17 34.77 103.41 34.77 103.41 49.67 100.68 49.67 100.68 34.77 95.91 34.77 95.91 32.34 108.17 32.34 108.17 34.77"/><rect class="cls-2" x="110.67" y="32.34" width="2.71" height="17.33"/><path class="cls-2" d="M127.72,44.53a4.5,4.5,0,0,1-2.15,4,8.94,8.94,0,0,1-4.76,1.15H117V32.34h3.83a7.12,7.12,0,0,1,4.3,1.07,3.71,3.71,0,0,1,1.19,1.5,4.56,4.56,0,0,1-1,5,6.65,6.65,0,0,1,.79.63,5.63,5.63,0,0,1,1.19,1.7,5.72,5.72,0,0,1,.44,2.29m-8-9.76V40a10.28,10.28,0,0,0,1.78-.56,6,6,0,0,0,2-1.21,2,2,0,0,0,.72-1.52,1.47,1.47,0,0,0-.56-1.35,5.31,5.31,0,0,0-2.82-.61Zm5.6,9.76a2.93,2.93,0,0,0-.91-2.22,4.23,4.23,0,0,0-1.33-.86c-.23.09-.47.21-.72.3a16.21,16.21,0,0,1-2.64.79v4.67h1.12a6.57,6.57,0,0,0,3.43-.75,2.12,2.12,0,0,0,1-1.94" transform="translate(0)"/><path class="cls-2" d="M139.53,46h-6.16l-1.47,3.71h-3l7.54-18.12L144,49.67h-3Zm-1-2.43-2.1-5.28-2.1,5.28Z" transform="translate(0)"/><path class="cls-2" d="M155.2,46.19a5,5,0,0,1-3.9,3.39,5.35,5.35,0,0,1-1,.09,5.61,5.61,0,0,1-2.06-.37,6.84,6.84,0,0,1-2.87-2.22l2.15-1.68a3.87,3.87,0,0,0,1.7,1.35,2.67,2.67,0,0,0,1.59.14,2.3,2.3,0,0,0,1.82-1.45,2,2,0,0,0-.79-2c-.77-.72-2-2-2.13-2.05l-2.12-2a4.93,4.93,0,0,1-1.33-2.08,3.72,3.72,0,0,1,0-2.19,4,4,0,0,1,1.29-1.94,4.49,4.49,0,0,1,2.08-1,4.6,4.6,0,0,1,2.57.19,5.86,5.86,0,0,1,2.36,1.75l-2.13,1.7a2.31,2.31,0,0,0-2.29-1,1.59,1.59,0,0,0-1.26,1c-.1.33-.07.86.65,1.56l2.89,2.78c.42.42.94.91,1.31,1.26a5.18,5.18,0,0,1,1.52,2.26,4.1,4.1,0,0,1,0,2.43" transform="translate(0)"/><path class="cls-4" d="M174.75,46h-6.16l-1.47,3.71h-3l7.54-18.12,7.52,18.12h-3Zm-1-2.43-2.1-5.28-2.1,5.28Z" transform="translate(0)"/><path class="cls-4" d="M192.33,44.53a4.5,4.5,0,0,1-2.15,4,8.94,8.94,0,0,1-4.76,1.15h-3.83V32.34h3.83a7.12,7.12,0,0,1,4.3,1.07,3.71,3.71,0,0,1,1.19,1.5,4.57,4.57,0,0,1-1,5,6.71,6.71,0,0,1,.79.63,5.64,5.64,0,0,1,1.19,1.7,5.72,5.72,0,0,1,.44,2.29m-8-9.76V40a10.28,10.28,0,0,0,1.78-.56,6,6,0,0,0,2-1.21,2,2,0,0,0,.72-1.52,1.47,1.47,0,0,0-.56-1.35,5.31,5.31,0,0,0-2.82-.61Zm5.61,9.76a2.93,2.93,0,0,0-.91-2.22,4.23,4.23,0,0,0-1.33-.86c-.23.09-.47.21-.72.3a16.21,16.21,0,0,1-2.64.79v4.67h1.12a6.57,6.57,0,0,0,3.43-.75,2.12,2.12,0,0,0,1.05-1.94" transform="translate(0)"/><path class="cls-4" d="M208,48.24a10,10,0,0,1-1.4.75,8.86,8.86,0,0,1-3.39.68A8.66,8.66,0,0,1,194.6,41a8.59,8.59,0,0,1,2.54-6.14,8.68,8.68,0,0,1,6.12-2.52,8.45,8.45,0,0,1,3.39.68l.37.16v3.2a5.94,5.94,0,0,0-8,.42,5.94,5.94,0,1,0,8.41,8.4,7.38,7.38,0,0,0,.58-.65Z" transform="translate(0)"/><rect class="cls-2" x="108.33" y="27.98" width="6.97" height="1.74"/><polygon class="cls-4" points="24.86 6.09 12.95 27.11 24.86 48.12 36.78 27.11 24.86 6.09"/><g class="cls-5"><g class="cls-6"><g class="cls-7"><polygon class="cls-2" points="0 49.88 27.61 49.88 13.8 25.55 0 49.88"/></g></g></g><g class="cls-5"><g class="cls-8"><g class="cls-9"><polygon class="cls-2" points="11.06 49.88 38.67 49.88 24.86 25.55 11.06 49.88"/></g></g></g><g class="cls-5"><g class="cls-10"><g class="cls-11"><polygon class="cls-2" points="22.11 49.88 49.71 49.88 35.91 25.55 22.11 49.88"/></g></g></g></g></g></svg>