<svg xmlns="http://www.w3.org/2000/svg" xmlns:xlink="http://www.w3.org/1999/xlink" viewBox="0 0 33 26.61"><defs><style>.cls-1{fill:url(#linear-gradient);}</style><linearGradient id="linear-gradient" y1="13.31" x2="33" y2="13.31" gradientUnits="userSpaceOnUse"><stop offset="0" stop-color="#44ad51"/><stop offset="1" stop-color="#3d8647"/></linearGradient></defs><title>Asset 129</title><g id="Layer_2" data-name="Layer 2"><g id="LOGO"><path class="cls-1" d="M14.11,26.58.87,23.65A1.12,1.12,0,0,1,0,22.56V4.27A1.12,1.12,0,0,1,1.36,3.18L14.59,6.11a1.12,1.12,0,0,1,.87,1.09V25.49A1.12,1.12,0,0,1,14.11,26.58ZM31.64,3.18,18.41,6.11a1.12,1.12,0,0,0-.87,1.09V25.49a1.12,1.12,0,0,0,1.36,1.09l13.24-2.93A1.12,1.12,0,0,0,33,22.56V4.27A1.12,1.12,0,0,0,31.64,3.18ZM16.74,4.7,28,2.21a1.12,1.12,0,0,0,.87-1.09h0a1.12,1.12,0,0,0-1.55-1L16.93,4.41a1.12,1.12,0,0,1-.86,0L5.67.09a1.12,1.12,0,0,0-1.55,1h0A1.12,1.12,0,0,0,5,2.21L16.26,4.7A1.12,1.12,0,0,0,16.74,4.7Z"/></g></g></svg>