<svg xmlns="http://www.w3.org/2000/svg" xmlns:xlink="http://www.w3.org/1999/xlink" viewBox="0 0 26.95 45.82"><defs><style>.cls-1{fill:url(#linear-gradient);}.cls-2{fill:url(#linear-gradient-2);}.cls-3{fill:url(#linear-gradient-3);}.cls-4{fill:url(#linear-gradient-4);}</style><linearGradient id="linear-gradient" y1="29.99" x2="26.95" y2="29.99" gradientUnits="userSpaceOnUse"><stop offset="0" stop-color="#44ad51"/><stop offset="1" stop-color="#3d8647"/></linearGradient><linearGradient id="linear-gradient-2" x1="14.31" y1="1.71" x2="17.73" y2="1.71" xlink:href="#linear-gradient"/><linearGradient id="linear-gradient-3" x1="13.33" y1="9.16" x2="18.07" y2="9.16" xlink:href="#linear-gradient"/><linearGradient id="linear-gradient-4" x1="8.02" y1="7.45" x2="14.05" y2="7.45" xlink:href="#linear-gradient"/></defs><title>pamatsjkola</title><g id="Layer_2" data-name="Layer 2"><g id="LOGO"><path class="cls-1" d="M26.81,43.9,18.67,27.55V17.19a1.52,1.52,0,0,0-.2-3h-10a1.52,1.52,0,0,0-.2,3V27.55L.14,43.9a1.32,1.32,0,0,0,1.18,1.91H25.63a1.32,1.32,0,0,0,1.18-1.91ZM8.49,33.06l2.43-4.88v-11H16v1.51H14a1,1,0,0,0,0,2h2V24H14a1,1,0,0,0,0,2h2v2.15l2.43,4.88Z"/><path class="cls-2" d="M16,3.42a1.71,1.71,0,1,0-1.71-1.71A1.71,1.71,0,0,0,16,3.42Z"/><path class="cls-3" d="M15.7,6.79a2.37,2.37,0,1,0,2.37,2.37A2.37,2.37,0,0,0,15.7,6.79Z"/><path class="cls-4" d="M11.07,10.5a3,3,0,0,0,1.83-.61,2.89,2.89,0,0,1,1.15-3.11,3.05,3.05,0,1,0-3,3.72Z"/></g></g></svg>