<svg xmlns="http://www.w3.org/2000/svg" xmlns:xlink="http://www.w3.org/1999/xlink" viewBox="0 0 26.56 42.4"><defs><style>.cls-1{fill:url(#linear-gradient);}.cls-2{fill:url(#linear-gradient-2);}.cls-3{fill:url(#linear-gradient-3);}</style><linearGradient id="linear-gradient" y1="26.01" x2="26.56" y2="26.01" gradientUnits="userSpaceOnUse"><stop offset="0" stop-color="#44ad51"/><stop offset="1" stop-color="#3d8647"/></linearGradient><linearGradient id="linear-gradient-2" x1="9.28" y1="4" x2="17.28" y2="4" xlink:href="#linear-gradient"/><linearGradient id="linear-gradient-3" x1="3.2" y1="4.52" x2="9.11" y2="4.52" xlink:href="#linear-gradient"/></defs><title>sakumskola</title><g id="Layer_2" data-name="Layer 2"><g id="LOGO"><g id="_Group_" data-name="&lt;Group&gt;"><path id="_Compound_Path_" data-name="&lt;Compound Path&gt;" class="cls-1" d="M25.43,16.12,20,14.27l-3.24-3.42a3.11,3.11,0,0,0-2.47-1.24h-2.1a3.11,3.11,0,0,0-2.47,1.24L6.51,14.27,1.13,16.12a1.64,1.64,0,0,0-.81,2.54C.68,32.5,6,42.4,13.28,42.4s12.6-9.9,13-23.74a1.64,1.64,0,0,0-.81-2.54ZM13.28,40.73C7.17,40.73,2.49,31.66,2,19.31a1.65,1.65,0,0,0,.22,0l5.77-2a1.66,1.66,0,0,0,.67-.43l.46-.48v2.81L7.62,25a.58.58,0,0,0,.57.73h.92v9.39a1.67,1.67,0,1,0,3.34,0V25.78h1.67v9.39a1.67,1.67,0,1,0,3.34,0V25.78h.92a.58.58,0,0,0,.57-.73l-1.48-5.86V16.38l.46.48a1.67,1.67,0,0,0,.67.43l5.77,2a1.65,1.65,0,0,0,.22,0C24.07,31.66,19.39,40.73,13.28,40.73Z"/><circle id="_Path_" data-name="&lt;Path&gt;" class="cls-2" cx="13.28" cy="4" r="4"/><path id="_Path_2" data-name="&lt;Path&gt;" class="cls-3" d="M7.47,6.15a1.63,1.63,0,1,0,0-3.27c-.77,0-2,1.24-3.66.44a.43.43,0,0,0-.56.59A4.51,4.51,0,0,0,7.47,6.15Z"/></g></g></g></svg>