<svg xmlns="http://www.w3.org/2000/svg" xmlns:xlink="http://www.w3.org/1999/xlink" viewBox="0 0 34.23 41.85"><defs><style>.cls-1{fill:url(#linear-gradient);}.cls-2{fill:url(#linear-gradient-2);}.cls-3{fill:url(#linear-gradient-3);}</style><linearGradient id="linear-gradient" y1="25.03" x2="30.34" y2="25.03" gradientUnits="userSpaceOnUse"><stop offset="0" stop-color="#44ad51"/><stop offset="1" stop-color="#3d8647"/></linearGradient><linearGradient id="linear-gradient-2" x1="3.88" y1="36.24" x2="34.23" y2="36.24" xlink:href="#linear-gradient"/><linearGradient id="linear-gradient-3" x1="9.33" y1="9.61" x2="26.02" y2="9.61" xlink:href="#linear-gradient"/></defs><title>vidusskola</title><g id="Layer_2" data-name="Layer 2"><g id="LOGO"><path class="cls-1" d="M28.43,29.38s1.92-.45,1.92-1.34V21.35c0-1.26-1.55-1.77-1.85-1.89v0H0V20.9H18.78A1.52,1.52,0,0,1,20.22,22H1.39v1h18.9v.88H1.39v1h18.9v.83H1.39v1h18.9v.88H1.39v1H20.12a1.51,1.51,0,0,1-1.34.82H0v1.22H18.91a8,8,0,0,0,2.58-.31Z"/><path class="cls-2" d="M18.91,30.64H5.74v0c-.3.12-1.85.64-1.85,1.89v6.69c0,.88,1.92,1.34,1.92,1.34l6.93.95a8.08,8.08,0,0,0,2.58.31H34.23V40.63H15.45a1.51,1.51,0,0,1-1.34-.82H32.84v-1H13.93v-.89h18.9v-1H13.93v-.83h18.9v-1H13.93v-.88h18.9v-1H14a1.51,1.51,0,0,1,1.44-1.06H34.23V30.64H18.91Z"/><path class="cls-3" d="M16.3,19.2c.14,0,2-.28,2.32,0,4.6,0,7.39-5.47,7.39-9.49.28-4.46-4.2-5.92-8-5.13-.06-.08-.15-.23-.26-.43a4.92,4.92,0,0,0,2.08.19,5.76,5.76,0,0,0,1.78-.52,5.56,5.56,0,0,0,1.52-1.07A4.87,4.87,0,0,0,24.28.95,4.83,4.83,0,0,0,22.15.74a5.67,5.67,0,0,0-1.78.53,5.81,5.81,0,0,0-1.52,1.08A5,5,0,0,0,17.69,4.1,12.55,12.55,0,0,1,16.29,0l-.93.15A13.39,13.39,0,0,0,16.84,4.5c-3.69-.57-7.76,1-7.5,5.22C9.34,13.61,11.9,18.87,16.3,19.2Z"/></g></g></svg>