<svg xmlns="http://www.w3.org/2000/svg" viewBox="0 0 495.14 58.47"><defs><style>.cls-1,.cls-2{fill:none;}.cls-1,.cls-5{stroke:#0f3d1f;}.cls-1,.cls-2,.cls-3,.cls-5,.cls-6{stroke-miterlimit:10;}.cls-2,.cls-3,.cls-6{stroke:#fff;}.cls-3,.cls-4,.cls-5,.cls-6{fill:#0f3d1f;}.cls-5{stroke-width:0.25px;}.cls-6{stroke-width:0.5px;}</style></defs><title>15</title><g id="Layer_2" data-name="Layer 2"><g id="Layer_5" data-name="Layer 5"><line class="cls-1" x1="334.55" y1="40.69" x2="412.79" y2="40.69"/><line class="cls-1" x1="418.76" y1="40.69" x2="427.24" y2="40.69"/><path class="cls-2" d="M422.33,40.77l-2.21-.6a9.54,9.54,0,0,0,2.21-3.49c.72-.17,1.37-.82,1.48-2.23s-.28-1.93-.78-2.19c0-.16.8-4.65-2.15-5.8-.34-.55-2.61-3.91-6.75-1.18a7.92,7.92,0,0,0-2.08,2,8.78,8.78,0,0,0-1.33,5c-.55.23-1,.82-.88,2.24s.81,2.11,1.55,2.25a9.3,9.3,0,0,0,2.18,3.47l-2.24.6a7.27,7.27,0,0,0-5.17,7.13v4a2.07,2.07,0,0,0,2,2.13h17.48A2,2,0,0,0,427.46,52v-4A7.23,7.23,0,0,0,422.33,40.77Zm-10.43-7.83c0-.44,0-.85,0-1.23a8.94,8.94,0,0,0,7.46-3,10.59,10.59,0,0,1,2.4,5.26c-.38,3.11-2.43,6.41-4.92,6.41C414.13,40.35,411.91,36.3,411.91,32.95Zm14.4,19a.77.77,0,0,1-.7.83H423.9V51.06a.31.31,0,1,0-.63,0v1.72h-4l-1.67-7.26a.84.84,0,0,0,.75-1L418,43a.79.79,0,0,0-.77-.64h-.76a.79.79,0,0,0-.77.64l-.32,1.43a.83.83,0,0,0,.75,1l-1.67,7.26h-4.11V51.06a.29.29,0,1,0-.58,0v1.72h-1.67a.8.8,0,0,1-.74-.83v-4A6,6,0,0,1,411.65,42l3.26-.88a4.26,4.26,0,0,0,2,.5,4.14,4.14,0,0,0,1.93-.5l3.24.88a6,6,0,0,1,4.25,5.89Z"/><path class="cls-2" d="M412.19,47.79a.74.74,0,0,0-1.15,0l-.8.94a.36.36,0,0,0,.24.59h2.27a.36.36,0,0,0,.24-.59Z"/><path class="cls-2" d="M416.55,34.59h.59a1.83,1.83,0,0,0,1.76,1.7,1.85,1.85,0,0,0,1.77-1.91c0-1.22-1-1.22-1.77-1.22s-1.51,0-1.72.81h-.67c-.22-.85-1.07-.81-1.72-.81s-1.78,0-1.78,1.22a1.85,1.85,0,0,0,1.78,1.92A1.83,1.83,0,0,0,416.55,34.59Zm2.36-.81c1,0,1.18.1,1.18.58a1.19,1.19,0,1,1-2.36,0C417.72,33.88,417.92,33.78,418.9,33.78Zm-5.3.58c0-.48.2-.58,1.18-.58s1.18.1,1.18.58a1.19,1.19,0,1,1-2.36,0Z"/><line class="cls-1" x1="161.29" y1="40.69" x2="308.16" y2="40.69"/><line class="cls-1" x1="318.53" y1="40.45" x2="325.91" y2="40.45"/><path class="cls-2" d="M320.76,40.09l-2.21-.6A9.54,9.54,0,0,0,320.77,36c.72-.17,1.37-.82,1.48-2.23s-.28-1.93-.78-2.19c0-.16.8-4.65-2.15-5.8-.34-.55-2.61-3.91-6.75-1.18a7.92,7.92,0,0,0-2.08,2,8.78,8.78,0,0,0-1.33,5c-.55.23-1,.82-.88,2.24s.81,2.11,1.55,2.25A9.3,9.3,0,0,0,312,39.48l-2.24.6a7.27,7.27,0,0,0-5.17,7.13v4a2.07,2.07,0,0,0,2,2.13H324a2,2,0,0,0,1.86-2.13v-4A7.23,7.23,0,0,0,320.76,40.09Zm-10.43-7.83c0-.44,0-.85,0-1.23a8.94,8.94,0,0,0,7.46-3,10.59,10.59,0,0,1,2.4,5.26c-.38,3.11-2.43,6.41-4.92,6.41C312.56,39.66,310.34,35.61,310.34,32.26Zm14.4,19a.77.77,0,0,1-.7.83h-1.71V50.37a.31.31,0,1,0-.63,0v1.72h-4L316,44.84a.84.84,0,0,0,.75-1l-.32-1.43a.79.79,0,0,0-.77-.64h-.76a.79.79,0,0,0-.77.64l-.32,1.43a.83.83,0,0,0,.75,1l-1.67,7.26H308.8V50.37a.29.29,0,1,0-.58,0v1.72h-1.67a.8.8,0,0,1-.74-.83v-4a6,6,0,0,1,4.27-5.89l3.26-.88a4.26,4.26,0,0,0,2,.5,4.14,4.14,0,0,0,1.93-.5l3.24.88a6,6,0,0,1,4.25,5.89Z"/><path class="cls-2" d="M310.62,47.1a.74.74,0,0,0-1.15,0l-.8.94a.36.36,0,0,0,.24.59h2.27a.36.36,0,0,0,.24-.59Z"/><path class="cls-2" d="M315,33.9h.59a1.83,1.83,0,0,0,1.76,1.7,1.85,1.85,0,0,0,1.77-1.91c0-1.22-1-1.22-1.77-1.22s-1.51,0-1.72.81h-.67c-.22-.85-1.07-.81-1.72-.81s-1.78,0-1.78,1.22a1.85,1.85,0,0,0,1.78,1.92A1.83,1.83,0,0,0,315,33.9Zm2.36-.81c1,0,1.18.1,1.18.58a1.19,1.19,0,1,1-2.36,0C316.15,33.19,316.35,33.09,317.33,33.09Zm-5.3.58c0-.48.2-.58,1.18-.58s1.18.1,1.18.58a1.19,1.19,0,1,1-2.36,0Z"/><line class="cls-1" x1="50.72" y1="40.69" x2="152.18" y2="40.69"/><path class="cls-2" d="M147.89,40.33l-2.21-.6a9.54,9.54,0,0,0,2.21-3.49c.72-.17,1.37-.82,1.48-2.23s-.28-1.93-.78-2.19c0-.16.8-4.65-2.15-5.8-.34-.55-2.61-3.91-6.75-1.18a7.92,7.92,0,0,0-2.08,2,8.78,8.78,0,0,0-1.33,5c-.55.23-1,.82-.88,2.24s.81,2.11,1.55,2.25a9.3,9.3,0,0,0,2.18,3.47l-2.24.6a7.27,7.27,0,0,0-5.17,7.13v4a2.07,2.07,0,0,0,2,2.13h17.48A2,2,0,0,0,153,51.51v-4A7.23,7.23,0,0,0,147.89,40.33ZM137.46,32.5c0-.44,0-.85,0-1.23a8.94,8.94,0,0,0,7.46-3,10.59,10.59,0,0,1,2.4,5.26c-.38,3.11-2.43,6.41-4.92,6.41C139.68,39.91,137.46,35.86,137.46,32.5Zm14.4,19a.77.77,0,0,1-.7.83h-1.71V50.62a.31.31,0,1,0-.63,0v1.72h-4l-1.67-7.26a.84.84,0,0,0,.75-1l-.32-1.43a.79.79,0,0,0-.77-.64H142a.79.79,0,0,0-.77.64L141,44a.83.83,0,0,0,.75,1L140,52.34h-4.11V50.62a.29.29,0,1,0-.58,0v1.72h-1.67a.8.8,0,0,1-.74-.83v-4a6,6,0,0,1,4.27-5.89l3.26-.88a4.26,4.26,0,0,0,2,.5,4.14,4.14,0,0,0,1.93-.5l3.24.88a6,6,0,0,1,4.25,5.89Z"/><path class="cls-2" d="M137.74,47.35a.74.74,0,0,0-1.15,0l-.8.94a.36.36,0,0,0,.24.59h2.27a.36.36,0,0,0,.24-.59Z"/><path class="cls-2" d="M142.1,34.14h.59a1.83,1.83,0,0,0,1.76,1.7,1.85,1.85,0,0,0,1.77-1.91c0-1.22-1-1.22-1.77-1.22s-1.51,0-1.72.81h-.67c-.22-.85-1.07-.81-1.72-.81s-1.78,0-1.78,1.22a1.85,1.85,0,0,0,1.78,1.92A1.83,1.83,0,0,0,142.1,34.14Zm2.36-.81c1,0,1.18.1,1.18.58a1.19,1.19,0,1,1-2.36,0C143.27,33.44,143.47,33.34,144.46,33.34Zm-5.3.58c0-.48.2-.58,1.18-.58s1.18.1,1.18.58a1.19,1.19,0,1,1-2.36,0Z"/><path class="cls-3" d="M108.82,27.15l-1.09-.27h0l-2.43,5a.85.85,0,0,1-1.47.11l-1.95-2.85a.61.61,0,0,0-.95-.08l-.48.49a.61.61,0,0,1-.88,0l-.48-.49a.61.61,0,0,0-.95.08L96.21,32a.85.85,0,0,1-1.47-.11l-2.43-5h0l-1.11.27a10.25,10.25,0,0,0-7.76,9.93v6.16a2.22,2.22,0,0,0,2.23,2.2h28.71a2.2,2.2,0,0,0,2.2-2.2V37.08A10.23,10.23,0,0,0,108.82,27.15ZM100,43.68a.93.93,0,1,1,.93-.93A.93.93,0,0,1,100,43.68Zm0-4.52a.93.93,0,1,1,.93-.93A.93.93,0,0,1,100,39.16Zm0-4.52a.93.93,0,1,1,.93-.93A.93.93,0,0,1,100,34.64Z"/><path class="cls-3" d="M89.85,13.23c-.84.39-1.48,1.29-1.31,3.34S89.81,19.73,91,20c1.68,4.11,5,7.51,9,7.51s7.25-3.38,8.94-7.48c1.25-.2,2.43-1.16,2.62-3.43.14-1.72-.28-2.64-.92-3.12C112,6,106.9,4.56,106.9,4.56s-4.79-5.74-13.23-1.26a11.4,11.4,0,0,0-4.45,5,.93.93,0,0,0,1,1.31A5.24,5.24,0,0,0,89.85,13.23Zm1.91-.08c6.39,0,10.26-2.69,12.41-5a16.09,16.09,0,0,1,3.94,7.16c-.43,4.88-3.91,10.28-8.16,10.28-4.55,0-8.21-6.17-8.21-11.29C91.74,13.89,91.75,13.51,91.76,13.15Z"/><path class="cls-4" d="M282.74,27.4l-1.09-.27h0l-2.43,5a.85.85,0,0,1-1.47.11l-1.95-2.85a.61.61,0,0,0-.95-.08l-.48.49a.61.61,0,0,1-.88,0l-.48-.49a.61.61,0,0,0-.95.08l-1.95,2.85a.85.85,0,0,1-1.47-.11l-2.43-5h0l-1.11.27a10.25,10.25,0,0,0-7.76,9.93v6.16a2.22,2.22,0,0,0,2.23,2.2h28.71a2.2,2.2,0,0,0,2.2-2.2V37.33A10.23,10.23,0,0,0,282.74,27.4Zm-8.8,16.54a.93.93,0,1,1,.93-.93A.93.93,0,0,1,273.94,43.94Zm0-4.52a.93.93,0,1,1,.93-.93A.93.93,0,0,1,273.94,39.42Zm0-4.52a.93.93,0,1,1,.93-.93A.93.93,0,0,1,273.94,34.9Z"/><path class="cls-4" d="M263.76,13.49c-.84.39-1.48,1.29-1.31,3.34s1.27,3.15,2.46,3.41c1.68,4.11,5,7.51,9,7.51s7.25-3.38,8.94-7.48c1.25-.2,2.43-1.16,2.62-3.43.14-1.72-.28-2.64-.92-3.12,1.44-7.41-3.69-8.9-3.69-8.9S276-.92,267.58,3.56a11.4,11.4,0,0,0-4.45,5,.93.93,0,0,0,1,1.31A5.24,5.24,0,0,0,263.76,13.49Zm1.91-.08c6.39,0,10.26-2.69,12.41-5A16.09,16.09,0,0,1,282,15.55c-.43,4.88-3.91,10.28-8.16,10.28-4.55,0-8.21-6.17-8.21-11.29C265.66,14.15,265.66,13.77,265.68,13.4Z"/><path class="cls-2" d="M282.76,27.4l-1.09-.27h0l-2.43,5a.85.85,0,0,1-1.47.11l-1.95-2.85a.61.61,0,0,0-.95-.08l-.48.49a.61.61,0,0,1-.88,0l-.48-.49a.61.61,0,0,0-.95.08l-1.95,2.85a.85.85,0,0,1-1.47-.11l-2.43-5h0l-1.11.27a10.25,10.25,0,0,0-7.76,9.93v6.16a2.22,2.22,0,0,0,2.23,2.2h28.71a2.2,2.2,0,0,0,2.2-2.2V37.33A10.23,10.23,0,0,0,282.76,27.4ZM274,43.94a.93.93,0,1,1,.93-.93A.93.93,0,0,1,274,43.94Zm0-4.52a.93.93,0,1,1,.93-.93A.93.93,0,0,1,274,39.42Zm0-4.52a.93.93,0,1,1,.93-.93A.93.93,0,0,1,274,34.9Z"/><path class="cls-2" d="M263.78,13.49c-.84.39-1.48,1.29-1.31,3.34s1.27,3.15,2.46,3.41c1.68,4.11,5,7.51,9,7.51s7.25-3.38,8.94-7.48c1.25-.2,2.43-1.16,2.62-3.43.14-1.72-.28-2.64-.92-3.12,1.44-7.41-3.69-8.9-3.69-8.9S276-.92,267.59,3.56a11.4,11.4,0,0,0-4.45,5,.93.93,0,0,0,1,1.31A5.24,5.24,0,0,0,263.78,13.49Zm1.91-.08c6.39,0,10.26-2.69,12.41-5A16.09,16.09,0,0,1,282,15.55c-.43,4.88-3.91,10.28-8.16,10.28-4.55,0-8.21-6.17-8.21-11.29C265.67,14.15,265.68,13.77,265.69,13.4Z"/><path class="cls-4" d="M384.87,27.16l-1.09-.27h0l-2.43,5a.85.85,0,0,1-1.47.11l-1.95-2.85a.61.61,0,0,0-.95-.08l-.48.49a.61.61,0,0,1-.88,0l-.48-.49a.61.61,0,0,0-.95.08L372.26,32a.85.85,0,0,1-1.47-.11l-2.43-5h0l-1.11.27a10.25,10.25,0,0,0-7.76,9.93v6.16a2.22,2.22,0,0,0,2.23,2.2h28.71a2.2,2.2,0,0,0,2.2-2.2V37.09A10.23,10.23,0,0,0,384.87,27.16Zm-8.8,16.54a.93.93,0,1,1,.93-.93A.93.93,0,0,1,376.07,43.7Zm0-4.52a.93.93,0,1,1,.93-.93A.93.93,0,0,1,376.07,39.18Zm0-4.52a.93.93,0,1,1,.93-.93A.93.93,0,0,1,376.07,34.66Z"/><path class="cls-4" d="M365.89,13.24c-.84.39-1.48,1.29-1.31,3.34S365.86,19.74,367,20c1.68,4.11,5,7.51,9,7.51s7.25-3.38,8.94-7.48c1.25-.2,2.43-1.16,2.62-3.43.14-1.72-.28-2.64-.92-3.12,1.44-7.41-3.69-8.9-3.69-8.9s-4.79-5.74-13.23-1.26a11.4,11.4,0,0,0-4.45,5,.93.93,0,0,0,1,1.31A5.24,5.24,0,0,0,365.89,13.24Zm1.91-.08c6.39,0,10.26-2.69,12.41-5a16.09,16.09,0,0,1,3.94,7.16c-.43,4.88-3.91,10.28-8.16,10.28-4.55,0-8.21-6.17-8.21-11.29C367.79,13.9,367.79,13.53,367.81,13.16Z"/><path class="cls-2" d="M384.89,27.42l-1.09-.27h0l-2.43,5a.85.85,0,0,1-1.47.11l-1.95-2.85a.61.61,0,0,0-.95-.08l-.48.49a.61.61,0,0,1-.88,0l-.48-.49a.61.61,0,0,0-.95.08l-1.95,2.85a.85.85,0,0,1-1.47-.11l-2.43-5h0l-1.11.27a10.25,10.25,0,0,0-7.76,9.93v6.16a2.22,2.22,0,0,0,2.23,2.2h28.71a2.2,2.2,0,0,0,2.2-2.2V37.34A10.23,10.23,0,0,0,384.89,27.42ZM376.08,44A.93.93,0,1,1,377,43,.93.93,0,0,1,376.08,44Zm0-4.52a.93.93,0,1,1,.93-.93A.93.93,0,0,1,376.08,39.43Zm0-4.52A.93.93,0,1,1,377,34,.93.93,0,0,1,376.08,34.91Z"/><path class="cls-2" d="M365.91,13.5c-.84.39-1.48,1.29-1.31,3.34s1.27,3.15,2.46,3.41c1.68,4.11,5,7.51,9,7.51s7.25-3.38,8.94-7.48c1.25-.2,2.43-1.16,2.62-3.43.14-1.72-.28-2.64-.92-3.12,1.44-7.41-3.69-8.9-3.69-8.9s-4.79-5.74-13.23-1.26a11.4,11.4,0,0,0-4.45,5,.93.93,0,0,0,1,1.31A5.24,5.24,0,0,0,365.91,13.5Zm1.91-.08c6.39,0,10.26-2.69,12.41-5a16.09,16.09,0,0,1,3.94,7.16c-.43,4.88-3.91,10.28-8.16,10.28-4.55,0-8.21-6.17-8.21-11.29C367.8,14.16,367.81,13.78,367.82,13.42Z"/><path class="cls-5" d="M163.81,11.49h-13v12.2h8.48v3.49l3.19-3.49h1.35Zm-10.1,5.35a1.17,1.17,0,0,1,.39.85,1.1,1.1,0,1,1-2.2,0,1.18,1.18,0,0,1,.39-.85,1.1,1.1,0,0,1,1.43,0Zm2.88,0a1.17,1.17,0,0,1,.39.85,1.1,1.1,0,1,1-2.2,0,1.18,1.18,0,0,1,.39-.85,1.1,1.1,0,0,1,1.43,0Zm3.27.87a1.1,1.1,0,1,1-1.1-1.1A1.1,1.1,0,0,1,159.87,17.7Zm2.89,0a1.1,1.1,0,1,1-1.1-1.1A1.1,1.1,0,0,1,162.75,17.7Z"/><rect class="cls-5" x="148.21" y="15.07" width="2.24" height="9.54"/><rect class="cls-5" x="152.13" y="20.1" width="2.55" height="10.4" transform="translate(178.71 -128.1) rotate(90)"/><polygon class="cls-4" points="148.12 29.09 148.16 23.18 148.16 18.52 150.13 22.17 150.04 24.42 152.36 25.71 148.12 29.09"/><path class="cls-4" d="M147.86,40.33l-2.21-.6a9.54,9.54,0,0,0,2.21-3.49c.72-.17,1.37-.82,1.48-2.23s-.28-1.93-.78-2.19c0-.16.8-4.65-2.15-5.8-.34-.55-2.61-3.91-6.75-1.18a7.92,7.92,0,0,0-2.08,2,8.78,8.78,0,0,0-1.33,5c-.55.23-1,.82-.88,2.24s.81,2.11,1.55,2.25a9.3,9.3,0,0,0,2.18,3.47l-2.24.6a7.27,7.27,0,0,0-5.17,7.13v4a2.07,2.07,0,0,0,2,2.13h17.48A2,2,0,0,0,153,51.51v-4A7.23,7.23,0,0,0,147.86,40.33ZM137.44,32.5c0-.44,0-.85,0-1.23a8.94,8.94,0,0,0,7.46-3,10.59,10.59,0,0,1,2.4,5.26c-.38,3.11-2.43,6.41-4.92,6.41C139.66,39.91,137.44,35.86,137.44,32.5Zm14.4,19a.77.77,0,0,1-.7.83h-1.71V50.62a.31.31,0,1,0-.63,0v1.72h-4l-1.67-7.26a.84.84,0,0,0,.75-1l-.32-1.43a.79.79,0,0,0-.77-.64H142a.79.79,0,0,0-.77.64L140.93,44a.83.83,0,0,0,.75,1L140,52.34H135.9V50.62a.29.29,0,1,0-.58,0v1.72h-1.67a.8.8,0,0,1-.74-.83v-4a6,6,0,0,1,4.27-5.89l3.26-.88a4.26,4.26,0,0,0,2,.5,4.14,4.14,0,0,0,1.93-.5l3.24.88a6,6,0,0,1,4.25,5.89Z"/><path class="cls-4" d="M137.72,47.35a.74.74,0,0,0-1.15,0l-.8.94a.36.36,0,0,0,.24.59h2.27a.36.36,0,0,0,.24-.59Z"/><path class="cls-4" d="M142.08,34.14h.59a1.83,1.83,0,0,0,1.76,1.7,1.85,1.85,0,0,0,1.77-1.91c0-1.22-1-1.22-1.77-1.22s-1.51,0-1.72.81H142c-.22-.85-1.07-.81-1.72-.81s-1.78,0-1.78,1.22a1.85,1.85,0,0,0,1.78,1.92A1.83,1.83,0,0,0,142.08,34.14Zm2.36-.81c1,0,1.18.1,1.18.58a1.19,1.19,0,1,1-2.36,0C143.25,33.44,143.45,33.34,144.43,33.34Zm-5.3.58c0-.48.2-.58,1.18-.58s1.18.1,1.18.58a1.19,1.19,0,1,1-2.36,0Z"/><path class="cls-4" d="M164.35,45l-.68-.19h0l-1.52,3.45a.54.54,0,0,1-.44.33.52.52,0,0,1-.48-.25L160,46.4a.38.38,0,0,0-.28-.18.37.37,0,0,0-.31.13l-.3.34a.36.36,0,0,1-.55,0l-.3-.34a.37.37,0,0,0-.31-.13.38.38,0,0,0-.28.18l-1.22,1.95a.52.52,0,0,1-.48.25.54.54,0,0,1-.44-.33L154,44.83h0l-.69.19a6.93,6.93,0,0,0-4.86,6.79V56a1.46,1.46,0,0,0,1.39,1.5h18A1.44,1.44,0,0,0,169.2,56V51.81A6.92,6.92,0,0,0,164.35,45Zm-5.52,11.32a.64.64,0,1,1,.59-.64A.61.61,0,0,1,158.83,56.33Zm0-3.09a.64.64,0,1,1,.59-.64A.61.61,0,0,1,158.83,53.23Zm0-3.09a.64.64,0,1,1,.59-.64A.61.61,0,0,1,158.83,50.14Z"/><path class="cls-4" d="M152.45,35.48c-.53.27-.93.89-.82,2.29s.8,2.16,1.54,2.33c1.05,2.81,3.14,5.14,5.61,5.14s4.55-2.31,5.6-5.12c.78-.13,1.52-.8,1.64-2.35.09-1.18-.18-1.8-.58-2.13.9-5.07-2.31-6.09-2.31-6.09s-3-3.93-8.29-.86a7.6,7.6,0,0,0-2.79,3.39.68.68,0,0,0,.06.67.55.55,0,0,0,.58.23A3.89,3.89,0,0,0,152.45,35.48Zm1.2-.06A9.84,9.84,0,0,0,161.43,32a11.36,11.36,0,0,1,2.47,4.9c-.27,3.34-2.45,7-5.11,7-2.85,0-5.14-4.23-5.14-7.73C153.64,35.94,153.64,35.68,153.65,35.43Z"/><path class="cls-2" d="M164.35,45.24l-.68-.19h0l-1.52,3.45a.54.54,0,0,1-.44.33.52.52,0,0,1-.48-.25L160,46.63a.38.38,0,0,0-.28-.18.37.37,0,0,0-.31.13l-.3.34a.36.36,0,0,1-.55,0l-.3-.34a.37.37,0,0,0-.31-.13.38.38,0,0,0-.28.18l-1.22,1.95a.52.52,0,0,1-.48.25.54.54,0,0,1-.44-.33L154,45.05h0l-.69.19A6.93,6.93,0,0,0,148.45,52v4.22a1.46,1.46,0,0,0,1.39,1.5h18a1.44,1.44,0,0,0,1.38-1.5V52A6.92,6.92,0,0,0,164.35,45.24Zm-5.52,11.32a.64.64,0,1,1,.59-.64A.61.61,0,0,1,158.84,56.55Zm0-3.09a.64.64,0,1,1,.59-.64A.61.61,0,0,1,158.84,53.46Zm0-3.09a.64.64,0,1,1,.59-.64A.61.61,0,0,1,158.84,50.37Z"/><path class="cls-2" d="M152.46,35.71c-.53.27-.93.89-.82,2.29s.8,2.16,1.54,2.33c1.05,2.81,3.14,5.14,5.61,5.14s4.55-2.31,5.6-5.12c.78-.13,1.52-.8,1.64-2.35.09-1.18-.18-1.8-.58-2.13.9-5.07-2.31-6.09-2.31-6.09s-3-3.93-8.29-.86a7.6,7.6,0,0,0-2.79,3.39.68.68,0,0,0,.06.67.55.55,0,0,0,.58.23A3.89,3.89,0,0,0,152.46,35.71Zm1.2-.06a9.84,9.84,0,0,0,7.78-3.44,11.36,11.36,0,0,1,2.47,4.9c-.27,3.34-2.45,7-5.11,7-2.85,0-5.14-4.23-5.14-7.73C153.65,36.16,153.65,35.9,153.66,35.65Z"/><path class="cls-5" d="M336.71,11.25h-13v12.2h8.48v3.49l3.19-3.49h1.35Zm-10.1,5.35a1.17,1.17,0,0,1,.39.85,1.1,1.1,0,1,1-2.2,0,1.18,1.18,0,0,1,.39-.85,1.1,1.1,0,0,1,1.43,0Zm2.88,0a1.17,1.17,0,0,1,.39.85,1.1,1.1,0,1,1-2.2,0,1.18,1.18,0,0,1,.39-.85,1.1,1.1,0,0,1,1.43,0Zm3.27.87a1.1,1.1,0,1,1-1.1-1.1A1.1,1.1,0,0,1,332.77,17.46Zm2.89,0a1.1,1.1,0,1,1-1.1-1.1A1.1,1.1,0,0,1,335.65,17.46Z"/><rect class="cls-5" x="321.1" y="14.83" width="2.24" height="9.54"/><rect class="cls-5" x="325.03" y="19.86" width="2.55" height="10.4" transform="translate(351.37 -301.25) rotate(90)"/><polygon class="cls-4" points="321.02 28.84 321.05 22.94 321.05 18.28 323.03 21.93 322.94 24.18 325.26 25.46 321.02 28.84"/><path class="cls-4" d="M320.76,40.09l-2.21-.6A9.54,9.54,0,0,0,320.77,36c.72-.17,1.37-.82,1.48-2.23s-.28-1.93-.78-2.19c0-.16.8-4.65-2.15-5.8-.34-.55-2.61-3.91-6.75-1.18a7.92,7.92,0,0,0-2.08,2,8.78,8.78,0,0,0-1.33,5c-.55.23-1,.82-.88,2.24s.81,2.11,1.55,2.25A9.3,9.3,0,0,0,312,39.48l-2.24.6a7.27,7.27,0,0,0-5.17,7.13v4a2.07,2.07,0,0,0,2,2.13H324a2,2,0,0,0,1.86-2.13v-4A7.23,7.23,0,0,0,320.76,40.09Zm-10.43-7.83c0-.44,0-.85,0-1.23a8.94,8.94,0,0,0,7.46-3,10.59,10.59,0,0,1,2.4,5.26c-.38,3.11-2.43,6.41-4.92,6.41C312.56,39.66,310.34,35.61,310.34,32.26Zm14.4,19a.77.77,0,0,1-.7.83h-1.71V50.37a.31.31,0,1,0-.63,0v1.72h-4L316,44.84a.84.84,0,0,0,.75-1l-.32-1.43a.79.79,0,0,0-.77-.64h-.76a.79.79,0,0,0-.77.64l-.32,1.43a.83.83,0,0,0,.75,1l-1.67,7.26H308.8V50.37a.29.29,0,1,0-.58,0v1.72h-1.67a.8.8,0,0,1-.74-.83v-4a6,6,0,0,1,4.27-5.89l3.26-.88a4.26,4.26,0,0,0,2,.5,4.14,4.14,0,0,0,1.93-.5l3.24.88a6,6,0,0,1,4.25,5.89Z"/><path class="cls-4" d="M310.62,47.1a.74.74,0,0,0-1.15,0l-.8.94a.36.36,0,0,0,.24.59h2.27a.36.36,0,0,0,.24-.59Z"/><path class="cls-4" d="M315,33.9h.59a1.83,1.83,0,0,0,1.76,1.7,1.85,1.85,0,0,0,1.77-1.91c0-1.22-1-1.22-1.77-1.22s-1.51,0-1.72.81h-.67c-.22-.85-1.07-.81-1.72-.81s-1.78,0-1.78,1.22a1.85,1.85,0,0,0,1.78,1.92A1.83,1.83,0,0,0,315,33.9Zm2.36-.81c1,0,1.18.1,1.18.58a1.19,1.19,0,1,1-2.36,0C316.15,33.19,316.35,33.09,317.33,33.09Zm-5.3.58c0-.48.2-.58,1.18-.58s1.18.1,1.18.58a1.19,1.19,0,1,1-2.36,0Z"/><path class="cls-4" d="M337.24,44.77l-.68-.19h0L335,48a.54.54,0,0,1-.44.33.52.52,0,0,1-.48-.25l-1.22-1.95a.38.38,0,0,0-.28-.18.37.37,0,0,0-.31.13l-.3.34a.36.36,0,0,1-.55,0l-.3-.34a.37.37,0,0,0-.31-.13.38.38,0,0,0-.28.18l-1.22,1.95a.52.52,0,0,1-.48.25.54.54,0,0,1-.44-.33l-1.52-3.45h0l-.69.19a6.93,6.93,0,0,0-4.86,6.79v4.22a1.46,1.46,0,0,0,1.39,1.5h18a1.44,1.44,0,0,0,1.38-1.5V51.56A6.92,6.92,0,0,0,337.24,44.77Zm-5.52,11.32a.64.64,0,1,1,.59-.64A.61.61,0,0,1,331.73,56.09Zm0-3.09a.64.64,0,1,1,.59-.64A.61.61,0,0,1,331.73,53Zm0-3.09a.64.64,0,1,1,.59-.64A.61.61,0,0,1,331.73,49.9Z"/><path class="cls-4" d="M325.35,35.24c-.53.27-.93.89-.82,2.29s.8,2.16,1.54,2.33c1.05,2.81,3.14,5.14,5.61,5.14s4.55-2.31,5.6-5.12c.78-.13,1.52-.8,1.64-2.35.09-1.18-.18-1.8-.58-2.13.9-5.07-2.31-6.09-2.31-6.09s-3-3.93-8.29-.86A7.6,7.6,0,0,0,325,31.84a.68.68,0,0,0,.06.67.55.55,0,0,0,.58.23A3.89,3.89,0,0,0,325.35,35.24Zm1.2-.06a9.84,9.84,0,0,0,7.78-3.44,11.36,11.36,0,0,1,2.47,4.9c-.27,3.34-2.45,7-5.11,7-2.85,0-5.14-4.23-5.14-7.73C326.54,35.69,326.54,35.44,326.55,35.19Z"/><path class="cls-2" d="M337.25,44.77l-.68-.19h0L335,48a.54.54,0,0,1-.44.33.52.52,0,0,1-.48-.25l-1.22-1.95a.38.38,0,0,0-.28-.18.37.37,0,0,0-.31.13l-.3.34a.36.36,0,0,1-.55,0l-.3-.34a.37.37,0,0,0-.31-.13.38.38,0,0,0-.28.18l-1.22,1.95a.52.52,0,0,1-.48.25.54.54,0,0,1-.44-.33l-1.52-3.45h0l-.69.19a6.93,6.93,0,0,0-4.86,6.79v4.22a1.46,1.46,0,0,0,1.39,1.5h18a1.44,1.44,0,0,0,1.38-1.5V51.56A6.92,6.92,0,0,0,337.25,44.77Zm-5.52,11.32a.64.64,0,1,1,.59-.64A.61.61,0,0,1,331.74,56.09Zm0-3.09a.64.64,0,1,1,.59-.64A.61.61,0,0,1,331.74,53Zm0-3.09a.64.64,0,1,1,.59-.64A.61.61,0,0,1,331.74,49.9Z"/><path class="cls-2" d="M325.36,35.24c-.53.27-.93.89-.82,2.29s.8,2.16,1.54,2.33c1.05,2.81,3.14,5.14,5.61,5.14s4.55-2.31,5.6-5.12c.78-.13,1.52-.8,1.64-2.35.09-1.18-.18-1.8-.58-2.13.9-5.07-2.31-6.09-2.31-6.09s-3-3.93-8.29-.86A7.6,7.6,0,0,0,325,31.84a.68.68,0,0,0,.06.67.55.55,0,0,0,.58.23A3.89,3.89,0,0,0,325.36,35.24Zm1.2-.06a9.84,9.84,0,0,0,7.78-3.44,11.36,11.36,0,0,1,2.47,4.9c-.27,3.34-2.45,7-5.11,7-2.85,0-5.14-4.23-5.14-7.73C326.55,35.69,326.55,35.44,326.56,35.19Z"/><path class="cls-5" d="M438.28,11.94h-13v12.2h8.48v3.49l3.19-3.49h1.35Zm-10.1,5.35a1.17,1.17,0,0,1,.39.85,1.1,1.1,0,1,1-2.2,0,1.18,1.18,0,0,1,.39-.85,1.1,1.1,0,0,1,1.43,0Zm2.88,0a1.17,1.17,0,0,1,.39.85,1.1,1.1,0,1,1-2.2,0,1.18,1.18,0,0,1,.39-.85,1.1,1.1,0,0,1,1.43,0Zm3.27.87a1.1,1.1,0,1,1-1.1-1.1A1.1,1.1,0,0,1,434.34,18.15Zm2.89,0a1.1,1.1,0,1,1-1.1-1.1A1.1,1.1,0,0,1,437.22,18.15Z"/><rect class="cls-5" x="422.67" y="15.52" width="2.24" height="9.54"/><rect class="cls-5" x="426.6" y="20.55" width="2.55" height="10.4" transform="translate(453.62 -402.13) rotate(90)"/><polygon class="cls-4" points="422.59 29.53 422.62 23.63 422.62 18.96 424.6 22.61 424.51 24.87 426.83 26.15 422.59 29.53"/><path class="cls-4" d="M422.33,40.77l-2.21-.6a9.54,9.54,0,0,0,2.21-3.49c.72-.17,1.37-.82,1.48-2.23s-.28-1.93-.78-2.19c0-.16.8-4.65-2.15-5.8-.34-.55-2.61-3.91-6.75-1.18a7.92,7.92,0,0,0-2.08,2,8.78,8.78,0,0,0-1.33,5c-.55.23-1,.82-.88,2.24s.81,2.11,1.55,2.25a9.3,9.3,0,0,0,2.18,3.47l-2.24.6a7.27,7.27,0,0,0-5.17,7.13v4a2.07,2.07,0,0,0,2,2.13h17.48A2,2,0,0,0,427.46,52v-4A7.23,7.23,0,0,0,422.33,40.77Zm-10.43-7.83c0-.44,0-.85,0-1.23a8.94,8.94,0,0,0,7.46-3,10.59,10.59,0,0,1,2.4,5.26c-.38,3.11-2.43,6.41-4.92,6.41C414.13,40.35,411.91,36.3,411.91,32.95Zm14.4,19a.77.77,0,0,1-.7.83H423.9V51.06a.31.31,0,1,0-.63,0v1.72h-4l-1.67-7.26a.84.84,0,0,0,.75-1L418,43a.79.79,0,0,0-.77-.64h-.76a.79.79,0,0,0-.77.64l-.32,1.43a.83.83,0,0,0,.75,1l-1.67,7.26h-4.11V51.06a.29.29,0,1,0-.58,0v1.72h-1.67a.8.8,0,0,1-.74-.83v-4A6,6,0,0,1,411.65,42l3.26-.88a4.26,4.26,0,0,0,2,.5,4.14,4.14,0,0,0,1.93-.5l3.24.88a6,6,0,0,1,4.25,5.89Z"/><path class="cls-4" d="M412.19,47.79a.74.74,0,0,0-1.15,0l-.8.94a.36.36,0,0,0,.24.59h2.27a.36.36,0,0,0,.24-.59Z"/><path class="cls-4" d="M416.55,34.59h.59a1.83,1.83,0,0,0,1.76,1.7,1.85,1.85,0,0,0,1.77-1.91c0-1.22-1-1.22-1.77-1.22s-1.51,0-1.72.81h-.67c-.22-.85-1.07-.81-1.72-.81s-1.78,0-1.78,1.22a1.85,1.85,0,0,0,1.78,1.92A1.83,1.83,0,0,0,416.55,34.59Zm2.36-.81c1,0,1.18.1,1.18.58a1.19,1.19,0,1,1-2.36,0C417.72,33.88,417.92,33.78,418.9,33.78Zm-5.3.58c0-.48.2-.58,1.18-.58s1.18.1,1.18.58a1.19,1.19,0,1,1-2.36,0Z"/><path class="cls-4" d="M438.81,45.46l-.68-.19h0l-1.52,3.45a.54.54,0,0,1-.44.33.52.52,0,0,1-.48-.25l-1.22-1.95a.38.38,0,0,0-.28-.18.37.37,0,0,0-.31.13l-.3.34a.36.36,0,0,1-.55,0l-.3-.34a.37.37,0,0,0-.31-.13.38.38,0,0,0-.28.18l-1.22,1.95a.52.52,0,0,1-.48.25.54.54,0,0,1-.44-.33l-1.52-3.45h0l-.69.19a6.93,6.93,0,0,0-4.86,6.79v4.22A1.46,1.46,0,0,0,424.3,58h18a1.44,1.44,0,0,0,1.38-1.5V52.25A6.92,6.92,0,0,0,438.81,45.46ZM433.3,56.77a.64.64,0,1,1,.59-.64A.61.61,0,0,1,433.3,56.77Zm0-3.09a.64.64,0,1,1,.59-.64A.61.61,0,0,1,433.3,53.68Zm0-3.09a.64.64,0,1,1,.59-.64A.61.61,0,0,1,433.3,50.58Z"/><path class="cls-4" d="M426.92,35.93c-.53.27-.93.89-.82,2.29s.8,2.16,1.54,2.33c1.05,2.81,3.14,5.14,5.61,5.14s4.55-2.31,5.6-5.12c.78-.13,1.52-.8,1.64-2.35.09-1.18-.18-1.8-.58-2.13.9-5.07-2.31-6.09-2.31-6.09s-3-3.93-8.29-.86a7.6,7.6,0,0,0-2.79,3.39.68.68,0,0,0,.06.67.55.55,0,0,0,.58.23A3.89,3.89,0,0,0,426.92,35.93Zm1.2-.06a9.84,9.84,0,0,0,7.78-3.44,11.36,11.36,0,0,1,2.47,4.9c-.27,3.34-2.45,7-5.11,7-2.85,0-5.14-4.23-5.14-7.73C428.11,36.38,428.11,36.12,428.12,35.87Z"/><path class="cls-2" d="M439,45.46l-.68-.19h0l-1.52,3.45a.54.54,0,0,1-.44.33.52.52,0,0,1-.48-.25l-1.22-1.95a.38.38,0,0,0-.28-.18.37.37,0,0,0-.31.13l-.3.34a.36.36,0,0,1-.55,0l-.3-.34a.37.37,0,0,0-.31-.13.38.38,0,0,0-.28.18l-1.22,1.95a.52.52,0,0,1-.48.25.54.54,0,0,1-.44-.33l-1.52-3.45h0l-.69.19a6.93,6.93,0,0,0-4.86,6.79v4.22a1.46,1.46,0,0,0,1.39,1.5h18a1.44,1.44,0,0,0,1.38-1.5V52.25A6.92,6.92,0,0,0,439,45.46Zm-5.52,11.32a.64.64,0,1,1,.59-.64A.61.61,0,0,1,433.47,56.77Zm0-3.09a.64.64,0,1,1,.59-.64A.61.61,0,0,1,433.47,53.68Zm0-3.09a.64.64,0,1,1,.59-.64A.61.61,0,0,1,433.47,50.58Z"/><path class="cls-2" d="M427.09,35.93c-.53.27-.93.89-.82,2.29s.8,2.16,1.54,2.33c1.05,2.81,3.14,5.14,5.61,5.14s4.55-2.31,5.6-5.12c.78-.13,1.52-.8,1.64-2.35.09-1.18-.18-1.8-.58-2.13C441,31,437.77,30,437.77,30s-3-3.93-8.29-.86a7.6,7.6,0,0,0-2.79,3.39.68.68,0,0,0,.06.67.55.55,0,0,0,.58.23A3.89,3.89,0,0,0,427.09,35.93Zm1.2-.06a9.84,9.84,0,0,0,7.78-3.44,11.36,11.36,0,0,1,2.47,4.9c-.27,3.34-2.45,7-5.11,7-2.85,0-5.14-4.23-5.14-7.73C428.28,36.38,428.28,36.12,428.29,35.87Z"/><path class="cls-4" d="M195.07,16.06a2.83,2.83,0,0,0,2.77-2.46h1.07a2.83,2.83,0,0,0,2.77,2.46,3,3,0,1,0-2.77-3.44h-1.07a2.83,2.83,0,1,0-2.77,3.44Zm6.61-4.9a2,2,0,1,1-1.87,2A1.92,1.92,0,0,1,201.68,11.17Zm-6.61,0a2,2,0,1,1-1.87,2A1.92,1.92,0,0,1,195.07,11.17Z"/><path class="cls-4" d="M186.85,15c.18,2.32,1.3,3.35,2.5,3.61,1.69,4.34,5,7.93,9,7.93s7.32-3.58,9-7.92c1.21-.25,2.34-1.29,2.53-3.62.15-1.95-.34-2.92-1.06-3.4,2.84-4.07-1.28-6.35-1.5-6.46C205.5,1,201.85.5,198.37.5c-3.67,0-7.15.71-8.94,4.67h0s-4.43,2.29-1.51,6.47C187.19,12.12,186.69,13.09,186.85,15Zm4-8.37c1.34-3.78,4.22-4.18,7.51-4.18s6.24.39,7.54,4.17c-1.7,2.92-.15,7.65.39,9.1-1.05,4.53-4.2,8.84-7.93,8.84s-6.87-4.3-7.93-8.81C191,14.38,192.55,9.61,190.85,6.67Z"/><path class="cls-4" d="M200.29,16.62h-3.83a1.9,1.9,0,0,0-1.86,1.94,1,1,0,0,0,1,1h5.62a1,1,0,0,0,1-1A1.9,1.9,0,0,0,200.29,16.62Z"/><path class="cls-4" d="M207.28,26.24,206.19,26l-7.81,18-7.79-18-1.07.29a10.75,10.75,0,0,0-7.81,10.52v6.53a2.25,2.25,0,0,0,2.19,2.33h29a2.27,2.27,0,0,0,2.21-2.33V36.76A10.76,10.76,0,0,0,207.28,26.24Zm-2.73,12.51a2.45,2.45,0,0,1,4.9,0Z"/><path class="cls-4" d="M201.54,28.17l-1.92.59-.09,0a1.65,1.65,0,0,0-2.32,0l-.09,0-1.92-.59a.89.89,0,0,0-1.12.91v2.29a.89.89,0,0,0,1.12.91l2-.61a1.64,1.64,0,0,0,2.32,0l2,.61a.89.89,0,0,0,1.13-.91V29.08A.89.89,0,0,0,201.54,28.17Z"/><path class="cls-2" d="M195.07,16.06a2.83,2.83,0,0,0,2.77-2.46h1.07a2.83,2.83,0,0,0,2.77,2.46,3,3,0,1,0-2.77-3.44h-1.07a2.83,2.83,0,1,0-2.77,3.44Zm6.61-4.9a2,2,0,1,1-1.87,2A1.92,1.92,0,0,1,201.68,11.17Zm-6.61,0a2,2,0,1,1-1.87,2A1.92,1.92,0,0,1,195.07,11.17Z"/><path class="cls-2" d="M186.85,15c.18,2.32,1.3,3.35,2.5,3.61,1.69,4.34,5,7.93,9,7.93s7.32-3.58,9-7.92c1.21-.25,2.34-1.29,2.53-3.62.15-1.95-.34-2.92-1.06-3.4,2.84-4.07-1.28-6.35-1.5-6.46C205.5,1,201.85.5,198.37.5c-3.67,0-7.15.71-8.94,4.67h0s-4.43,2.29-1.51,6.47C187.19,12.12,186.69,13.09,186.85,15Zm4-8.37c1.34-3.78,4.22-4.18,7.51-4.18s6.24.39,7.54,4.17c-1.7,2.92-.15,7.65.39,9.1-1.05,4.53-4.2,8.84-7.93,8.84s-6.87-4.3-7.93-8.81C191,14.38,192.55,9.61,190.85,6.67Z"/><path class="cls-2" d="M200.29,16.62h-3.83a1.9,1.9,0,0,0-1.86,1.94,1,1,0,0,0,1,1h5.62a1,1,0,0,0,1-1A1.9,1.9,0,0,0,200.29,16.62Z"/><path class="cls-2" d="M207.28,26.24,206.19,26l-7.81,18-7.79-18-1.07.29a10.75,10.75,0,0,0-7.81,10.52v6.53a2.25,2.25,0,0,0,2.19,2.33h29a2.27,2.27,0,0,0,2.21-2.33V36.76A10.76,10.76,0,0,0,207.28,26.24Zm-2.73,12.51a2.45,2.45,0,0,1,4.9,0Z"/><path class="cls-2" d="M201.54,28.17l-1.92.59-.09,0a1.65,1.65,0,0,0-2.32,0l-.09,0-1.92-.59a.89.89,0,0,0-1.12.91v2.29a.89.89,0,0,0,1.12.91l2-.61a1.64,1.64,0,0,0,2.32,0l2,.61a.89.89,0,0,0,1.13-.91V29.08A.89.89,0,0,0,201.54,28.17Z"/><path class="cls-4" d="M231.88,32.48l-1.1-.28h0l-2.46,5.18a.86.86,0,0,1-1.49.11l-2-2.93a.61.61,0,0,0-1-.08l-.48.51a.61.61,0,0,1-.89,0l-.48-.51a.61.61,0,0,0-.5-.19.62.62,0,0,0-.46.27l-2,2.93a.86.86,0,0,1-1.49-.11l-2.45-5.18h0l-1.12.28a10.5,10.5,0,0,0-7.85,10.21V49a2.26,2.26,0,0,0,2.25,2.26h29A2.24,2.24,0,0,0,239.71,49V42.68A10.49,10.49,0,0,0,231.88,32.48Zm-8.9,17a1,1,0,1,1,.94-1A1,1,0,0,1,223,49.48Zm0-4.65a1,1,0,1,1,.94-1A1,1,0,0,1,223,44.83Zm0-4.65a1,1,0,1,1,.94-1A1,1,0,0,1,223,40.18Z"/><path class="cls-4" d="M212.7,18.17c-.85.4-1.49,1.33-1.32,3.44s1.28,3.24,2.48,3.5c1.7,4.23,5.06,7.72,9,7.72s7.33-3.47,9-7.69c1.26-.2,2.46-1.2,2.65-3.53.14-1.77-.29-2.71-.93-3.2,1.46-7.62-3.73-9.15-3.73-9.15S225.09,3.36,216.56,8a11.65,11.65,0,0,0-4.5,5.1,1,1,0,0,0,.1,1,.93.93,0,0,0,.94.34A5.47,5.47,0,0,0,212.7,18.17Zm1.93-.08c6.46,0,10.37-2.77,12.54-5.16a16.63,16.63,0,0,1,4,7.37c-.44,5-4,10.57-8.25,10.57-4.6,0-8.3-6.35-8.3-11.6C214.61,18.85,214.62,18.46,214.64,18.09Z"/><path class="cls-2" d="M231.91,32.48l-1.1-.28h0l-2.46,5.18a.86.86,0,0,1-1.49.11l-2-2.93a.61.61,0,0,0-1-.08l-.48.51a.61.61,0,0,1-.89,0l-.48-.51a.61.61,0,0,0-.5-.19.62.62,0,0,0-.46.27l-2,2.93a.86.86,0,0,1-1.49-.11l-2.45-5.18h0l-1.12.28a10.5,10.5,0,0,0-7.85,10.21V49a2.26,2.26,0,0,0,2.25,2.26h29A2.24,2.24,0,0,0,239.74,49V42.68A10.49,10.49,0,0,0,231.91,32.48Zm-8.9,17a1,1,0,1,1,.94-1A1,1,0,0,1,223,49.48Zm0-4.65a1,1,0,1,1,.94-1A1,1,0,0,1,223,44.83Zm0-4.65a1,1,0,1,1,.94-1A1,1,0,0,1,223,40.18Z"/><path class="cls-2" d="M212.73,18.17c-.85.4-1.49,1.33-1.32,3.44s1.28,3.24,2.48,3.5c1.7,4.23,5.06,7.72,9,7.72s7.33-3.47,9-7.69c1.26-.2,2.46-1.2,2.65-3.53.14-1.77-.29-2.71-.93-3.2,1.46-7.62-3.73-9.15-3.73-9.15S225.12,3.36,216.59,8a11.65,11.65,0,0,0-4.5,5.1,1,1,0,0,0,.1,1,.93.93,0,0,0,.94.34A5.47,5.47,0,0,0,212.73,18.17Zm1.93-.08c6.46,0,10.37-2.77,12.54-5.16a16.63,16.63,0,0,1,4,7.37c-.44,5-4,10.57-8.25,10.57-4.6,0-8.3-6.35-8.3-11.6C214.64,18.85,214.65,18.46,214.67,18.09Z"/><path class="cls-4" d="M12.51,15.53a5.91,5.91,0,0,0-.91-3.31h0A5.63,5.63,0,0,0,10,10.77c-3.13-1.91-4.83.53-5,.84-.29.1-2.08.89-1.56,3.68,0,.09,0,.19,0,.28-.38.18-.67.58-.59,1.51s.57,1.42,1.11,1.54C4.67,20.47,6.17,22,8,22s3.27-1.52,4-3.37c.56-.09,1.1-.53,1.18-1.55S12.92,15.69,12.51,15.53ZM8,21.14c-1.84,0-3.37-2.25-3.66-4.38a7,7,0,0,1,1.78-3.64,6.89,6.89,0,0,0,5.55,2.08q0,.39,0,.84C11.65,18.35,10,21.14,8,21.14Z"/><path class="cls-4" d="M7.82,16.9a1.17,1.17,0,0,0,0-.16h.34a1.17,1.17,0,0,0,0,.16c0,.92.91.92,1.35.92s1.35,0,1.35-.92S9.93,16,9.49,16a1.59,1.59,0,0,0-1.15.32H7.62A1.59,1.59,0,0,0,6.47,16c-.44,0-1.35,0-1.35.92s.91.92,1.35.92S7.82,17.82,7.82,16.9Zm1.67-.49c.78,0,.92.16.92.49s-.14.49-.92.49-.92-.16-.92-.49S8.71,16.41,9.49,16.41Zm-3.94.49c0-.33.14-.49.92-.49s.92.16.92.49-.14.49-.92.49S5.55,17.22,5.55,16.89Z"/><path class="cls-4" d="M11.95,21.85l-.52-.13L8,29.6,4.5,21.72l-.5.13A4.61,4.61,0,0,0,.51,26.33v2.78a1,1,0,0,0,1,1h13a1,1,0,0,0,1-1V26.33A4.63,4.63,0,0,0,11.95,21.85Zm-1.51,5.44,1-1.05a.58.58,0,0,1,.85,0l1,1.06Z"/><path class="cls-4" d="M8,28.16l1.16-2.94-.54-.54A.59.59,0,0,0,9.11,24l-.24-1a.59.59,0,0,0-.57-.45H7.67A.59.59,0,0,0,7.1,23l-.24,1a.59.59,0,0,0,.49.72l-.54.54Z"/><path class="cls-2" d="M12.5,15.53a5.91,5.91,0,0,0-.91-3.31h0A5.63,5.63,0,0,0,10,10.77c-3.13-1.91-4.83.53-5,.84-.29.1-2.08.89-1.56,3.68,0,.09,0,.19,0,.28-.38.18-.67.58-.59,1.51s.57,1.42,1.11,1.54c.76,1.86,2.26,3.39,4,3.39s3.27-1.52,4-3.37c.56-.09,1.1-.53,1.18-1.55S12.92,15.69,12.5,15.53ZM7.95,21.14c-1.84,0-3.37-2.25-3.66-4.38a7,7,0,0,1,1.78-3.64,6.89,6.89,0,0,0,5.55,2.08q0,.39,0,.84C11.65,18.35,10,21.14,7.95,21.14Z"/><path class="cls-2" d="M7.82,16.9a1.17,1.17,0,0,0,0-.16h.34a1.17,1.17,0,0,0,0,.16c0,.92.91.92,1.35.92s1.35,0,1.35-.92S9.93,16,9.49,16a1.59,1.59,0,0,0-1.15.32H7.62A1.59,1.59,0,0,0,6.47,16c-.44,0-1.35,0-1.35.92s.91.92,1.35.92S7.82,17.82,7.82,16.9Zm1.67-.49c.78,0,.92.16.92.49s-.14.49-.92.49-.92-.16-.92-.49S8.71,16.41,9.49,16.41Zm-3.94.49c0-.33.14-.49.92-.49s.92.16.92.49-.14.49-.92.49S5.55,17.22,5.55,16.89Z"/><path class="cls-2" d="M11.94,21.85l-.52-.13L8,29.6,4.49,21.72l-.5.13A4.61,4.61,0,0,0,.5,26.33v2.78a1,1,0,0,0,1,1h13a1,1,0,0,0,1-1V26.33A4.63,4.63,0,0,0,11.94,21.85Zm-1.51,5.44,1-1.05a.58.58,0,0,1,.85,0l1,1.06Z"/><path class="cls-2" d="M8,28.16l1.16-2.94-.54-.54A.59.59,0,0,0,9.1,24l-.24-1a.59.59,0,0,0-.57-.45H7.66a.59.59,0,0,0-.57.45l-.24,1a.59.59,0,0,0,.49.72l-.54.54Z"/><path class="cls-4" d="M48.76,18.53c0-.26,0-.52,0-.78-.64,1.54-1.84,2.81-3.22,2.81-1.84,0-3.37-2.25-3.66-4.38a7,7,0,0,1,1.78-3.64,6.79,6.79,0,0,0,5.08,2.07c0-.56,0-1.12-.07-1.69a1.4,1.4,0,0,1,.54-1.24l0-.05h0a5.63,5.63,0,0,0-1.61-1.45c-3.13-1.91-4.83.53-5,.84-.29.1-2.08.89-1.56,3.68,0,.09,0,.19,0,.28-.38.18-.67.58-.59,1.51S41,17.92,41.5,18c.76,1.86,2.26,3.39,4,3.39a4,4,0,0,0,3.1-1.74A5.92,5.92,0,0,0,48.76,18.53Z"/><path class="cls-4" d="M45.41,16.32a1.17,1.17,0,0,0,0-.16h.34a1.17,1.17,0,0,0,0,.16c0,.92.91.92,1.35.92s1.35,0,1.35-.92-.91-.92-1.35-.92a1.59,1.59,0,0,0-1.15.32h-.72a1.59,1.59,0,0,0-1.15-.32c-.44,0-1.35,0-1.35.92s.91.92,1.35.92S45.41,17.24,45.41,16.32Zm1.67-.49c.78,0,.92.16.92.49s-.14.49-.92.49-.92-.16-.92-.49S46.3,15.83,47.08,15.83Zm-3.94.49c0-.33.14-.49.92-.49s.92.16.92.49-.14.49-.92.49S43.14,16.65,43.14,16.32Z"/><path class="cls-4" d="M42.09,21.14l-.5.13a4.62,4.62,0,0,0-.68.23,1.25,1.25,0,0,1,.69,1.06,5.06,5.06,0,0,0,.09.58,1.37,1.37,0,0,1,.32.56,11.67,11.67,0,0,1,.62,1.73,4.57,4.57,0,0,1-.23,2,4.39,4.39,0,0,1-1.15,2.09h3.29l.77-1Z"/><path class="cls-4" d="M45.58,27.58l1.16-2.94-.54-.54a.59.59,0,0,0,.49-.72l-.24-1a.59.59,0,0,0-.57-.45h-.64a.59.59,0,0,0-.57.45l-.24,1a.59.59,0,0,0,.49.72l-.54.54Z"/><path class="cls-2" d="M50.09,15a5.91,5.91,0,0,0-.91-3.31h0a5.63,5.63,0,0,0-1.61-1.45c-3.13-1.91-4.83.53-5,.84-.29.1-2.08.89-1.56,3.68,0,.09,0,.19,0,.28-.38.18-.67.58-.59,1.51S41,17.92,41.49,18c.76,1.86,2.26,3.39,4,3.39s3.27-1.52,4-3.37c.56-.09,1.1-.53,1.18-1.55S50.5,15.11,50.09,15Zm-4.56,5.61c-1.84,0-3.37-2.25-3.66-4.38a7,7,0,0,1,1.78-3.64,6.89,6.89,0,0,0,5.55,2.08q0,.39,0,.84C49.24,17.77,47.58,20.56,45.53,20.56Z"/><path class="cls-2" d="M45.41,16.32a1.17,1.17,0,0,0,0-.16h.34a1.17,1.17,0,0,0,0,.16c0,.92.91.92,1.35.92s1.35,0,1.35-.92-.91-.92-1.35-.92a1.59,1.59,0,0,0-1.15.32H45.2a1.59,1.59,0,0,0-1.15-.32c-.44,0-1.35,0-1.35.92s.91.92,1.35.92S45.41,17.24,45.41,16.32Zm1.67-.49c.78,0,.92.16.92.49s-.14.49-.92.49-.92-.16-.92-.49S46.29,15.83,47.08,15.83Zm-3.94.49c0-.33.14-.49.92-.49s.92.16.92.49-.14.49-.92.49S43.14,16.65,43.14,16.32Z"/><path class="cls-2" d="M49.53,21.27,49,21.14,45.54,29l-3.46-7.88-.5.13a4.61,4.61,0,0,0-.68.23,1.25,1.25,0,0,1,.69,1.06,5.06,5.06,0,0,0,.09.58,1.37,1.37,0,0,1,.32.56,11.67,11.67,0,0,1,.62,1.73,4.57,4.57,0,0,1-.23,2,4.39,4.39,0,0,1-1.15,2.09H52a1,1,0,0,0,1-1V25.75A4.63,4.63,0,0,0,49.53,21.27ZM48,26.71l1-1.05a.58.58,0,0,1,.85,0l1,1.06Z"/><path class="cls-2" d="M45.58,27.58l1.16-2.94-.54-.54a.59.59,0,0,0,.49-.72l-.24-1a.59.59,0,0,0-.57-.45h-.64a.59.59,0,0,0-.57.45l-.24,1a.59.59,0,0,0,.49.72l-.54.54Z"/><path class="cls-4" d="M23.21,22.22l.94,1.11a1.38,1.38,0,0,1,.72.53,1.7,1.7,0,0,1,.52.3l1-1A1.06,1.06,0,0,1,26,23L24.1,21.18l-1.22.32-.23.07.24.28A1.57,1.57,0,0,1,23.21,22.22Z"/><path class="cls-4" d="M30.88,15.15c0-.27,0-.52,0-.75-.15-3.23-1.8-4.46-3.8-4.17a2.67,2.67,0,0,1-.87,0c-1.17-.21-2.31.85-3,1.82a3.08,3.08,0,0,0-.48,1.2,1.67,1.67,0,0,1,.85,1.81l.07,0c0-.08.06-.17.09-.25a2.18,2.18,0,0,1,1.18-1.22.28.28,0,0,1,.34.13.36.36,0,0,1,0,.4l0,0a.29.29,0,0,0,0,.3.23.23,0,0,0,.25.13,6.92,6.92,0,0,0,2.83-1.22.91.91,0,0,1,.76-.17,1,1,0,0,1,.64.49l0,.08a3.84,3.84,0,0,1,.46,1.83c0,2.33-1.49,5.15-3.34,5.15A3.08,3.08,0,0,1,24.33,19a1.1,1.1,0,0,1-.5.72,3.69,3.69,0,0,0,2.93,2c1.61,0,3-1.55,3.65-3.42.48-.12.93-.56,1-1.55S31.22,15.33,30.88,15.15Z"/><path class="cls-4" d="M31.32,28.11a1.61,1.61,0,0,1,.08-.21c-.1-.2-.2-.41-.29-.62a1.28,1.28,0,0,1-.08-.81,1.44,1.44,0,0,1,1-2.62c.52.06,1,.11,1.57.14a4.56,4.56,0,0,0-2.3-2.28l0,.05L28.61,24.9a.18.18,0,0,1-.27,0l-.62-.61.1.47a.58.58,0,0,1-.5.73l.79,4.34h2.84V28.2a.21.21,0,0,1,.2-.22A.2.2,0,0,1,31.32,28.11Z"/><path class="cls-4" d="M30.9,21.57l-.23-.07-1.22-.32L27.52,23a1.06,1.06,0,0,1-.34.21l1.19,1.17a.12.12,0,0,0,.17,0Z"/><path class="cls-2" d="M25.72,24.77l.1-.47-.62.61a.18.18,0,0,1-.27,0l-2.63-3.1a1.13,1.13,0,0,1-.71,1.08,1.11,1.11,0,0,1-1.15.81,1.64,1.64,0,0,1-.33,0A4.82,4.82,0,0,0,19.5,26v2.81a1,1,0,0,0,1,1H22.2V28.2a.2.2,0,1,1,.4,0v1.63h2.84l.79-4.34A.58.58,0,0,1,25.72,24.77Z"/><path class="cls-2" d="M24.09,21.18l-1.22.32-.23.07L25,24.35a.12.12,0,0,0,.17,0l1.19-1.17A1.06,1.06,0,0,1,26,23Z"/><path class="cls-2" d="M30.87,15.15c0-.27,0-.52,0-.75-.15-3.23-1.8-4.46-3.8-4.17a2.67,2.67,0,0,1-.87,0c-1.17-.21-2.31.85-3,1.82a3.08,3.08,0,0,0-.48,1.19,1.67,1.67,0,0,1,.86,1.81l.06,0c0-.08.05-.17.08-.24a2.18,2.18,0,0,1,1.18-1.22.28.28,0,0,1,.34.13.36.36,0,0,1,0,.4l0,0a.29.29,0,0,0,0,.3.23.23,0,0,0,.25.13,6.92,6.92,0,0,0,2.83-1.22.91.91,0,0,1,.76-.17,1,1,0,0,1,.64.49l0,.08a3.84,3.84,0,0,1,.46,1.83c0,2.33-1.49,5.15-3.34,5.15A3.07,3.07,0,0,1,24.33,19a1.09,1.09,0,0,1-.5.72,3.68,3.68,0,0,0,2.93,2c1.61,0,3-1.55,3.65-3.42.48-.12.93-.56,1-1.55S31.21,15.33,30.87,15.15Z"/><path class="cls-2" d="M31.32,28.12a1.61,1.61,0,0,1,.09-.22c-.1-.2-.2-.41-.29-.62a1.28,1.28,0,0,1-.08-.81,1.44,1.44,0,0,1,1-2.62q.78.09,1.56.14a4.56,4.56,0,0,0-2.3-2.28l0,.05L28.59,24.9a.18.18,0,0,1-.27,0l-.62-.61.1.47a.58.58,0,0,1-.5.73l.79,4.34h2.84V28.2a.21.21,0,0,1,.2-.22A.2.2,0,0,1,31.32,28.12Z"/><path class="cls-2" d="M30.88,21.57l-.23-.07-1.22-.32L27.5,23a1.06,1.06,0,0,1-.34.21l1.19,1.17a.12.12,0,0,0,.17,0Z"/><path class="cls-4" d="M59.69,23.29v.09h0c0-.08.05-.16.13-.07a4.09,4.09,0,0,0,.72.61l.4.28a5.61,5.61,0,0,1,.49.38,1.55,1.55,0,0,1,.31.39,9.75,9.75,0,0,1,1.78,1.65,1.19,1.19,0,0,1,.12.18l.16-.86a.58.58,0,0,1-.5-.73l.1-.47-.62.61a.18.18,0,0,1-.27,0l-2.64-3.12A4.16,4.16,0,0,0,59.69,23.29Z"/><path class="cls-4" d="M61.69,21.62l-1.22.32-.23.07,2.36,2.78a.12.12,0,0,0,.17,0L64,23.63a1.06,1.06,0,0,1-.34-.21Z"/><path class="cls-4" d="M68,18.67c.48-.12.93-.56,1-1.55s-.19-1.35-.53-1.53c0-.27,0-.52,0-.75-.15-3.23-1.8-4.46-3.8-4.17a2.67,2.67,0,0,1-.87,0c-1.17-.21-2.31.85-3,1.82a4.9,4.9,0,0,0-.52,3.07c-.37.16-.67.56-.59,1.56s.56,1.48,1.07,1.57c.69,1.87,2,3.41,3.64,3.41S67.31,20.55,68,18.67Zm-3.65,2.55c-1.81,0-3.28-2.7-3.34-5a4.53,4.53,0,0,1,.27-.94,2.18,2.18,0,0,1,1.18-1.22.28.28,0,0,1,.34.13.36.36,0,0,1,0,.4l0,0a.29.29,0,0,0,0,.3.23.23,0,0,0,.25.13,6.92,6.92,0,0,0,2.83-1.22.91.91,0,0,1,.76-.17,1,1,0,0,1,.64.49l0,.08a3.84,3.84,0,0,1,.46,1.83h0C67.69,18.41,66.2,21.23,64.35,21.23Z"/><path class="cls-4" d="M68.89,22.16l0,.05-2.66,3.13a.18.18,0,0,1-.27,0l-.62-.61.1.47a.58.58,0,0,1-.5.73l.79,4.34h2.84V28.65a.2.2,0,1,1,.4,0v1.63h1.73a1,1,0,0,0,1-1V26.47A4.68,4.68,0,0,0,68.89,22.16Z"/><path class="cls-4" d="M68.48,22l-.23-.07L67,21.62,65.1,23.41a1.06,1.06,0,0,1-.34.21l1.19,1.17a.12.12,0,0,0,.17,0Z"/><path class="cls-2" d="M63.31,25.21l.1-.47-.62.61a.18.18,0,0,1-.27,0l-2.66-3.13,0-.05a4.68,4.68,0,0,0-2.74,4.31v2.81a1,1,0,0,0,1,1h1.73V28.65a.2.2,0,1,1,.4,0v1.63H63l.79-4.34A.58.58,0,0,1,63.31,25.21Z"/><path class="cls-2" d="M61.68,21.62l-1.22.32-.23.07,2.36,2.78a.12.12,0,0,0,.17,0L64,23.63a1.06,1.06,0,0,1-.34-.21Z"/><path class="cls-2" d="M68,18.67c.48-.12.93-.56,1-1.55s-.19-1.35-.53-1.53c0-.27,0-.52,0-.75-.15-3.23-1.8-4.46-3.8-4.17a2.67,2.67,0,0,1-.87,0c-1.17-.21-2.31.85-3,1.82a4.9,4.9,0,0,0-.52,3.07c-.37.16-.67.56-.59,1.56s.56,1.48,1.07,1.57c.69,1.87,2,3.41,3.64,3.41S67.3,20.55,68,18.67Zm-3.65,2.55c-1.81,0-3.28-2.7-3.34-5a4.53,4.53,0,0,1,.27-.94,2.18,2.18,0,0,1,1.18-1.22.28.28,0,0,1,.34.13.36.36,0,0,1,0,.4l0,0a.29.29,0,0,0,0,.3.23.23,0,0,0,.25.13,6.92,6.92,0,0,0,2.83-1.22.91.91,0,0,1,.76-.17,1,1,0,0,1,.64.49l0,.08a3.84,3.84,0,0,1,.46,1.83h0C67.68,18.41,66.19,21.23,64.34,21.23Z"/><path class="cls-2" d="M68.87,22.16l0,.05-2.66,3.13a.18.18,0,0,1-.27,0l-.62-.61.1.47a.58.58,0,0,1-.5.73l.79,4.34h2.84V28.65a.2.2,0,1,1,.4,0v1.63h1.73a1,1,0,0,0,1-1V26.47A4.68,4.68,0,0,0,68.87,22.16Z"/><path class="cls-2" d="M68.47,22l-.23-.07L67,21.62l-1.93,1.79a1.06,1.06,0,0,1-.34.21l1.19,1.17a.12.12,0,0,0,.17,0Z"/><path class="cls-4" d="M62.12,24.64V13.11a5.52,5.52,0,0,0-5.52-5.5H52.94a5.47,5.47,0,0,0-5.47,5.5V24.6a7.36,7.36,0,0,0-4.26,6.7v4.06a2.07,2.07,0,0,0,2.07,2.08H64.22a2.1,2.1,0,0,0,2.12-2.07V31.3A7.39,7.39,0,0,0,62.12,24.64ZM45.2,36.16a.79.79,0,0,1-.68-.79V31.3a6.07,6.07,0,0,1,4.6-5.91v5.07l-.29.11a2,2,0,0,0-1.28,1.86v3.72H45.2Zm4.21-21.1a10.07,10.07,0,0,0,8.14-3,10.14,10.14,0,0,1,2.56,5.07c-.34,3.17-2.59,6.63-5.35,6.63-3,0-5.39-4.06-5.39-7.42Q49.37,15.63,49.41,15.06ZM51,24.89l1.59-.4a5,5,0,0,0,1.53.46,4.65,4.65,0,0,0,1.22,0,5,5,0,0,0,1.51-.45l1.61.4v5.64a3.83,3.83,0,0,0-1.68,1.09,2.57,2.57,0,0,1-2.1.94h0a2.55,2.55,0,0,1-1.95-.89A3.72,3.72,0,0,0,51,30.55Zm9.67,5.68-.3-.11V25.39A6.08,6.08,0,0,1,65,31.3v4.06a.79.79,0,0,1-.79.8H62V32.44A2,2,0,0,0,60.71,30.57Z"/><path class="cls-2" d="M62.12,24.64V13.11a5.52,5.52,0,0,0-5.52-5.5H52.94a5.47,5.47,0,0,0-5.47,5.5V24.6a7.36,7.36,0,0,0-4.26,6.7v4.06a2.07,2.07,0,0,0,2.07,2.08H64.22a2.1,2.1,0,0,0,2.12-2.07V31.3A7.39,7.39,0,0,0,62.12,24.64ZM45.2,36.16a.79.79,0,0,1-.68-.79V31.3a6.07,6.07,0,0,1,4.6-5.91v5.07l-.29.11a2,2,0,0,0-1.28,1.86v3.72H45.2Zm4.21-21.1a10.07,10.07,0,0,0,8.14-3,10.14,10.14,0,0,1,2.56,5.07c-.34,3.17-2.59,6.63-5.35,6.63-3,0-5.39-4.06-5.39-7.42Q49.37,15.63,49.41,15.06ZM51,24.89l1.59-.4a5,5,0,0,0,1.53.46,4.65,4.65,0,0,0,1.22,0,5,5,0,0,0,1.51-.45l1.61.4v5.64a3.83,3.83,0,0,0-1.68,1.09,2.57,2.57,0,0,1-2.1.94h0a2.55,2.55,0,0,1-1.95-.89A3.72,3.72,0,0,0,51,30.55Zm9.67,5.68-.3-.11V25.39A6.08,6.08,0,0,1,65,31.3v4.06a.79.79,0,0,1-.79.8H62V32.44A2,2,0,0,0,60.71,30.57Z"/><path class="cls-4" d="M26.33,15.77c1.26-5.13-2.21-6.14-2.21-6.14s-2.59-4.4-7.66-1.31a9,9,0,0,0-2.24,1.92c-1,1-1.61,2.68-1.71,5.36-.62.24-1.1.83-1,2.3s.92,2.18,1.76,2.31c1.13,2.76,3.37,5,6,5s4.9-2.29,6-5.06c.8-.17,1.53-.83,1.66-2.29C27.09,16.7,26.78,16.09,26.33,15.77Zm-5,7.55a1.1,1.1,0,0,1-.67.35,3.58,3.58,0,0,1-1.38.29c-3.06,0-5.53-4.16-5.53-7.6,0-.47,0-.91,0-1.32,4.48.2,7.13-1.6,8.57-3.16a10.07,10.07,0,0,1,2.44,4.36s0,.07,0,.11A8.79,8.79,0,0,1,21.36,23.32Z"/><path class="cls-4" d="M17.55,29.17l.35-1.47a.86.86,0,0,1,.25-.43L18,27.19l-3.17-2.62L13,25a7,7,0,0,0-5.56,6.69v4.15A1.54,1.54,0,0,0,9,37.33h8.16l1.24-7.09A.87.87,0,0,1,17.55,29.17Z"/><path class="cls-4" d="M25.55,25l-1.9-.45-3.16,2.62-.11.08a.85.85,0,0,1,.25.43L21,29.17a.87.87,0,0,1-.84,1.07l1.24,7.09h8.16a1.48,1.48,0,0,0,1.53-1.47V31.71A7,7,0,0,0,25.55,25Z"/><path class="cls-2" d="M25.36,20.34c.8-.17,1.53-.83,1.66-2.29.1-1.2-.21-1.81-.66-2.13,1.26-5.13-2.21-6.14-2.21-6.14s-2.59-4.4-7.66-1.31a9,9,0,0,0-2.24,1.92c-1,1-1.61,2.68-1.71,5.36-.62.24-1.1.83-1,2.3s.92,2.18,1.76,2.31c1.13,2.76,3.37,5,6,5S24.23,23.11,25.36,20.34Zm-6,3.77c-3.06,0-5.53-4.16-5.53-7.6,0-.47,0-.91,0-1.32,4.48.2,7.13-1.6,8.57-3.16a10.07,10.07,0,0,1,2.44,4.36s0,.07,0,.11C24.86,19.95,22.39,24.1,19.33,24.1Z"/><path class="cls-2" d="M17.57,29.31l.35-1.47a.86.86,0,0,1,.25-.43l-.11-.08L14.9,24.71,13,25.17a7,7,0,0,0-5.56,6.69V36A1.54,1.54,0,0,0,9,37.47h8.16l1.24-7.09A.87.87,0,0,1,17.57,29.31Z"/><path class="cls-2" d="M25.57,25.17l-1.9-.45L20.5,27.34l-.11.08a.85.85,0,0,1,.25.43L21,29.31a.87.87,0,0,1-.84,1.07l1.24,7.09h8.16A1.48,1.48,0,0,0,31.1,36V31.85A7,7,0,0,0,25.57,25.17Z"/><path class="cls-4" d="M43.32,34.52l-.83-.21h0l-1.85,3.84a.65.65,0,0,1-1.12.09L38,36.07A.47.47,0,0,0,37.3,36l-.36.38a.47.47,0,0,1-.67,0L35.9,36a.47.47,0,0,0-.72.06L33.7,38.24a.65.65,0,0,1-1.12-.09l-1.85-3.84h0l-.85.21A7.81,7.81,0,0,0,24,42.09v4.7a1.69,1.69,0,0,0,1.7,1.68h21.9a1.68,1.68,0,0,0,1.67-1.68v-4.7A7.8,7.8,0,0,0,43.32,34.52ZM36.6,47.13a.71.71,0,1,1,.71-.71A.71.71,0,0,1,36.6,47.13Zm0-3.45a.71.71,0,1,1,.71-.71A.71.71,0,0,1,36.6,43.69Zm0-3.45a.71.71,0,1,1,.71-.71A.71.71,0,0,1,36.6,40.24Z"/><path class="cls-4" d="M44.66,24.08c1.1-5.65-2.81-6.78-2.81-6.78s-3.65-4.38-10.09-1a8.69,8.69,0,0,0-3.39,3.78.71.71,0,0,0,.79,1,4,4,0,0,0-.3,2.79c-.64.3-1.13,1-1,2.55s1,2.4,1.87,2.6c1.28,3.14,3.82,5.72,6.83,5.72s5.53-2.58,6.82-5.7c1-.15,1.86-.89,2-2.62C45.47,25.14,45.14,24.45,44.66,24.08Zm-8.11,9.24c-3.47,0-6.26-4.71-6.26-8.61,0-.3,0-.59,0-.87A12.45,12.45,0,0,0,39.77,20,10.09,10.09,0,0,1,41,21.57a1.25,1.25,0,0,1,.54.89,14,14,0,0,1,1.2,3C42.44,29.2,39.79,33.32,36.54,33.32Z"/><path class="cls-2" d="M43.33,34.52l-.83-.21h0l-1.85,3.84a.65.65,0,0,1-1.12.09L38,36.07a.47.47,0,0,0-.72-.06l-.36.38a.47.47,0,0,1-.67,0L35.91,36a.47.47,0,0,0-.72.06l-1.49,2.17a.65.65,0,0,1-1.12-.09l-1.85-3.84h0l-.85.21A7.81,7.81,0,0,0,24,42.09v4.7a1.69,1.69,0,0,0,1.7,1.68h21.9a1.68,1.68,0,0,0,1.67-1.68v-4.7A7.8,7.8,0,0,0,43.33,34.52ZM36.61,47.13a.71.71,0,1,1,.71-.71A.71.71,0,0,1,36.61,47.13Zm0-3.45a.71.71,0,1,1,.71-.71A.71.71,0,0,1,36.61,43.69Zm0-3.45a.71.71,0,1,1,.71-.71A.71.71,0,0,1,36.61,40.24Z"/><path class="cls-2" d="M44.67,24.08c1.1-5.65-2.81-6.78-2.81-6.78s-3.65-4.38-10.09-1a8.69,8.69,0,0,0-3.39,3.78.71.71,0,0,0,.79,1,4,4,0,0,0-.3,2.79c-.64.3-1.13,1-1,2.55s1,2.4,1.87,2.6c1.28,3.14,3.82,5.72,6.83,5.72s5.53-2.58,6.82-5.7c1-.15,1.86-.89,2-2.62C45.48,25.14,45.15,24.45,44.67,24.08Zm-8.11,9.24c-2.12,0-4-1.76-5.12-4l0-.05a10.51,10.51,0,0,1-1.12-4.53c0-.3,0-.59,0-.87A12.45,12.45,0,0,0,39.78,20a10.1,10.1,0,0,1,1.27,1.57,1.25,1.25,0,0,1,.51.85,14,14,0,0,1,1.22,3C42.45,29.2,39.8,33.32,36.56,33.32Z"/><path class="cls-4" d="M487,38l-3.53-.88a13.45,13.45,0,0,0,3.43-5c1.17-.21,2.27-1.14,2.44-3.27s-.51-2.91-1.38-3.25c0-.66-.11-1.27-.14-1.85s-.08-.91-.14-1.37a1.49,1.49,0,0,1-.62.45c-.23.08-.44.21-.67.3l.14-.06h0l-.14.07a3.4,3.4,0,0,0-.32.25,1.26,1.26,0,0,1-.16.11,22.08,22.08,0,0,1,.2,3.16c0,4.88-3.49,10.77-7.83,10.77s-7.83-5.89-7.83-10.77a2.74,2.74,0,0,1,.12-.81,9,9,0,0,1,.77-1.79,3.91,3.91,0,0,1,.37-.54c-.57-.17-1.09-.32-1.62-.46a1.73,1.73,0,0,1-1.42-1.47,13.16,13.16,0,0,0-.07,4.05c-.8.38-1.39,1.24-1.23,3.19s1.2,3,2.33,3.25a13.77,13.77,0,0,0,3.48,5.08l-3.5.87a10.71,10.71,0,0,0-8.12,10.39v5.89a3.08,3.08,0,0,0,3.06,3.06h27.45a3.07,3.07,0,0,0,3-3.06V48.35A10.71,10.71,0,0,0,487,38ZM467.4,55.44h-2.75a1.22,1.22,0,0,1-1.19-1.2V48.35A8.86,8.86,0,0,1,467.4,41Zm11.66,0h-1.35L471.29,39.5l4-1a6.92,6.92,0,0,0,3,.71,7.12,7.12,0,0,0,3.1-.72l4.08,1Zm14.22-1.2a1.21,1.21,0,0,1-1.18,1.2H489.4V41a8.85,8.85,0,0,1,3.87,7.31Z"/><circle class="cls-4" cx="478.35" cy="46.55" r="1.06"/><circle class="cls-4" cx="478.35" cy="50.35" r="1.06"/><path class="cls-4" d="M481.52,40.08l-1.92.56-.09,0a1.7,1.7,0,0,0-2.31,0l-.09,0-1.91-.56a.88.88,0,0,0-1.12.86v2.17a.87.87,0,0,0,1.12.86l2-.58a1.69,1.69,0,0,0,2.32,0l2,.58a.88.88,0,0,0,1.13-.86V40.94A.88.88,0,0,0,481.52,40.08Z"/><path id="_Path_" data-name="&lt;Path&gt;" class="cls-6" d="M478,23.39l-9.51-2.15v3.93a1.62,1.62,0,0,0,.28.71l0,0,0,0c1.1.74,4.47,1.54,9.31,1.54s8.21-.79,9.31-1.54l0,0,0,0a1.65,1.65,0,0,0,.28-.72V21.24l-9.51,2.15A.74.74,0,0,1,478,23.39Z"/><path id="_Path_2" data-name="&lt;Path&gt;" class="cls-6" d="M468.22,12.14l-5.67,6.39,7.19,1.91h0l8.61,2.29L487,20.44h0l.72-.19-9.49-2.91a.54.54,0,1,1,.32-1l11.14,3.42,4.51-1.2-5.67-6.39Z"/><path id="_Path_3" data-name="&lt;Path&gt;" class="cls-6" d="M489.5,30V20.21h-1.16V30a1.08,1.08,0,0,0-.49.9h0a1.08,1.08,0,0,0,.49.9V33a.58.58,0,1,0,1.16,0V31.81a1.08,1.08,0,0,0,.5-.91h0A1.08,1.08,0,0,0,489.5,30Z"/><line class="cls-1" x1="437.04" y1="40.45" x2="456.53" y2="40.45"/><circle class="cls-4" cx="50.72" cy="40.69" r="1.89"/><circle class="cls-4" cx="457.86" cy="40.45" r="1.89"/></g></g></svg>