<svg xmlns="http://www.w3.org/2000/svg" viewBox="0 0 27.35 27.35"><defs><style>.cls-1{opacity:0.35;}.cls-2,.cls-3{fill:none;stroke-miterlimit:10;stroke-width:0.25px;}.cls-2{stroke:#0cb14c;}.cls-3{stroke:#4d4d52;}</style></defs><title>Asset 9</title><g id="Layer_2" data-name="Layer 2"><g id="Layer_2-2" data-name="Layer 2"><g class="cls-1"><circle class="cls-2" cx="13.67" cy="13.67" r="13.55"/></g><path class="cls-3" d="M12,17.11,9.38,14.5a.42.42,0,0,1,.6-.6l2,2,5.39-5.39a.42.42,0,1,1,.6.6Zm0,0"/><path class="cls-3" d="M13.68,22.6v0a8.92,8.92,0,1,1,8.92-8.92,8.93,8.93,0,0,1-8.92,8.92Zm0-17a8.08,8.08,0,1,0,0,16.16h0a8.08,8.08,0,0,0,0-16.16Zm0,0"/></g></g></svg>