<svg xmlns="http://www.w3.org/2000/svg" viewBox="0 0 27.35 27.35"><defs><style>.cls-1{opacity:0.35;}.cls-2{fill:none;stroke:#0cb14c;stroke-miterlimit:10;stroke-width:0.25px;}.cls-3{fill:#4d4d52;}</style></defs><title>Asset 6</title><g id="Layer_2" data-name="Layer 2"><g id="Layer_2-2" data-name="Layer 2"><g class="cls-1"><circle class="cls-2" cx="13.67" cy="13.67" r="13.55"/></g><path class="cls-3" d="M15.17,19.73h-3a.55.55,0,0,1,0-1.1h3a.55.55,0,1,1,0,1.1Zm-3-.85a.3.3,0,0,0,0,.6h3a.3.3,0,1,0,0-.6Z"/><path class="cls-3" d="M13.65,21.89a.91.91,0,0,1-.89-.68,1.12,1.12,0,0,1-1-1.1V20h3.68v.13a1.12,1.12,0,0,1-1,1.1A.91.91,0,0,1,13.65,21.89Zm-1.58-1.66a.87.87,0,0,0,.81.73H13l0,.1a.66.66,0,0,0,1.31,0l0-.1h.1a.87.87,0,0,0,.81-.73Z"/><path class="cls-3" d="M15.64,18.37h-4V16.92a17.61,17.61,0,0,0-1.3-1.9,4.16,4.16,0,0,1-.9-2.6,4.22,4.22,0,1,1,8.44,0A4.16,4.16,0,0,1,17,15,20,20,0,0,0,15.64,17Zm-3.75-.25h3.5V16.89l0,0a20.26,20.26,0,0,1,1.36-2,3.91,3.91,0,0,0,.85-2.45,4,4,0,1,0-7.93,0,3.91,3.91,0,0,0,.85,2.45,17.86,17.86,0,0,1,1.34,2l0,0Z"/><rect class="cls-3" x="12.5" y="13.73" width="0.29" height="4.48" transform="translate(-3.12 3.07) rotate(-12.35)"/><rect class="cls-3" x="12.37" y="15.89" width="4.57" height="0.25" transform="translate(-4.08 26.99) rotate(-77.9)"/><rect class="cls-3" x="12.97" y="20.97" width="1.42" height="0.25"/><polygon class="cls-3" points="13.43 15.29 13.18 14.32 12.49 14.78 12.39 14.63 13.29 14.03 13.47 14.72 13.93 13.59 14.31 14.68 14.99 14.37 15.06 14.54 14.21 14.93 13.92 14.1 13.43 15.29"/><path class="cls-3" d="M13.81,7.33a.11.11,0,0,1-.11-.11V5.34a.11.11,0,1,1,.22,0V7.22A.11.11,0,0,1,13.81,7.33Z"/><path class="cls-3" d="M16.68,8l-.06,0a.11.11,0,0,1,0-.15l1-1.6a.11.11,0,0,1,.18.11l-1,1.6A.11.11,0,0,1,16.68,8Z"/><path class="cls-3" d="M18.47,10.29a.11.11,0,0,1-.05-.2l1.66-.87a.11.11,0,0,1,.1.19l-1.66.87Z"/><path class="cls-3" d="M20.88,13h0L19,12.84a.11.11,0,1,1,0-.22l1.87.12a.11.11,0,0,1,0,.22Z"/><path class="cls-3" d="M19.68,16.73l-.06,0-1.54-1.07a.11.11,0,0,1,.12-.18l1.54,1.07a.11.11,0,0,1-.06.2Z"/><path class="cls-3" d="M10.67,8A.11.11,0,0,1,10.57,8l-1-1.6a.11.11,0,0,1,.18-.11l1,1.6a.11.11,0,0,1,0,.15Z"/><path class="cls-3" d="M8.88,10.29h0L7.17,9.41a.11.11,0,1,1,.1-.19l1.66.87a.11.11,0,0,1-.05.2Z"/><path class="cls-3" d="M6.47,13a.11.11,0,0,1,0-.22l1.87-.12a.11.11,0,1,1,0,.22L6.48,13Z"/><path class="cls-3" d="M7.67,16.73a.11.11,0,0,1-.06-.2l1.54-1.07a.11.11,0,1,1,.12.18L7.73,16.71Z"/></g></g></svg>