<svg xmlns="http://www.w3.org/2000/svg" viewBox="0 0 27.1 27.1"><defs><style>.cls-1{fill:#4d4d52;}.cls-2{fill:#4ebd91;fill-rule:evenodd;}</style></defs><title>Asset 4</title><g id="Layer_2" data-name="Layer 2"><g id="Layer_2-2" data-name="Layer 2"><circle class="cls-1" cx="13.55" cy="13.55" r="13.55"/><path class="cls-2" d="M12.63,16.78a.42.42,0,0,0-.41.41.45.45,0,0,0,0,.13h2.59a.44.44,0,0,0,0-.13.41.41,0,0,0-.4-.41h-.14V14.47h.14a.4.4,0,0,0,.4-.4.4.4,0,0,0-.11-.29l-.42.09a3.93,3.93,0,0,1-.78.06,3.88,3.88,0,0,1-.77-.06l-.42-.09a.41.41,0,0,0-.13.29.41.41,0,0,0,.41.4h.14v2.31ZM14,9.88l-.36-1.24-.36,1.24v0H12.06l1,.77,0,0v0L12.67,12l.94-.77h.05l.94.77-.36-1.24v0l0,0,1-.77H14ZM19.53,8a.34.34,0,0,0-.33-.31H7.88A.33.33,0,0,0,7.55,8a4.53,4.53,0,0,0,1.28,3.51,3.88,3.88,0,0,0,.77.6c.27.19.61.32.78.63a.37.37,0,0,1-.22.54h-.08a.39.39,0,0,1-.34-.38.25.25,0,0,0-.27-.26.26.26,0,0,0-.28.26.94.94,0,0,0,.6.87.74.74,0,0,0,.29.05.94.94,0,0,0,.69-.33.83.83,0,0,0,.19-.68,4.26,4.26,0,0,0,1.81.78,3.93,3.93,0,0,0,1.54,0,4.26,4.26,0,0,0,1.81-.78.83.83,0,0,0,.19.68.89.89,0,0,0,.69.33.79.79,0,0,0,.29-.05,1,1,0,0,0,.6-.87.26.26,0,0,0-.28-.26.25.25,0,0,0-.27.26.4.4,0,0,1-.34.38h-.08a.37.37,0,0,1-.22-.54,2,2,0,0,1,.78-.63,3.47,3.47,0,0,0,.75-.6A4.49,4.49,0,0,0,19.53,8ZM8.07,8.32a.16.16,0,0,1,0-.08H9.35a4.31,4.31,0,0,0,.54,3.41A4,4,0,0,1,8.07,8.32Zm9.12,3.33a4.3,4.3,0,0,0,.54-3.41H19s0,.05,0,.08a4,4,0,0,1-1.81,3.33Zm-.85,8.09V18.26a.15.15,0,0,0-.15-.14h-.4a.15.15,0,0,1-.15-.14v-.26a.14.14,0,0,0-.14-.14H11.57a.14.14,0,0,0-.14.14V18a.14.14,0,0,1-.15.14h-.4a.15.15,0,0,0-.15.14v1.48a.15.15,0,0,0,.15.14h5.31a.15.15,0,0,0,.15-.14Zm-2.6-.19h-.32V18.31a1.17,1.17,0,0,1-.42.24v-.29a.7.7,0,0,0,.27-.17.62.62,0,0,0,.22-.27h.26Z"/></g></g></svg>