<svg xmlns="http://www.w3.org/2000/svg" viewBox="0 0 27.1 27.1"><defs><style>.cls-1{fill:#0cb14c;}.cls-2{fill:#fff;}</style></defs><title>Asset 12</title><g id="Layer_2" data-name="Layer 2"><g id="Layer_2-2" data-name="Layer 2"><circle class="cls-1" cx="13.55" cy="13.55" r="13.55"/><path class="cls-2" d="M15,19.6H12a.55.55,0,0,1,0-1.1h3a.55.55,0,1,1,0,1.1Zm-3-.85a.3.3,0,0,0,0,.6h3a.3.3,0,1,0,0-.6Z"/><path class="cls-2" d="M13.53,21.76a.91.91,0,0,1-.89-.68,1.12,1.12,0,0,1-1-1.1v-.13h3.68V20a1.12,1.12,0,0,1-1,1.1A.91.91,0,0,1,13.53,21.76ZM11.95,20.1a.87.87,0,0,0,.81.73h.1l0,.1a.66.66,0,0,0,1.31,0l0-.1h.1a.87.87,0,0,0,.81-.73Z"/><path class="cls-2" d="M15.52,18.25h-4V16.8a17.61,17.61,0,0,0-1.3-1.9,4.16,4.16,0,0,1-.9-2.6,4.22,4.22,0,1,1,8.44,0,4.16,4.16,0,0,1-.9,2.6,20,20,0,0,0-1.32,1.94ZM11.77,18h3.5V16.77l0,0a20.26,20.26,0,0,1,1.36-2,3.91,3.91,0,0,0,.85-2.45,4,4,0,1,0-7.93,0,3.91,3.91,0,0,0,.85,2.45,17.86,17.86,0,0,1,1.34,2l0,0Z"/><rect class="cls-2" x="12.37" y="13.61" width="0.29" height="4.48" transform="translate(-3.1 3.04) rotate(-12.35)"/><rect class="cls-2" x="12.24" y="15.76" width="4.57" height="0.25" transform="translate(-4.05 26.77) rotate(-77.9)"/><rect class="cls-2" x="12.84" y="20.84" width="1.42" height="0.25"/><polygon class="cls-2" points="13.3 15.16 13.05 14.19 12.37 14.65 12.27 14.5 13.16 13.9 13.34 14.59 13.8 13.47 14.19 14.55 14.86 14.25 14.94 14.41 14.08 14.8 13.79 13.97 13.3 15.16"/><path class="cls-2" d="M13.69,7.2a.11.11,0,0,1-.11-.11V5.22a.11.11,0,1,1,.22,0V7.09A.11.11,0,0,1,13.69,7.2Z"/><path class="cls-2" d="M16.56,7.9l-.06,0a.11.11,0,0,1,0-.15l1-1.6a.11.11,0,0,1,.18.11l-1,1.6A.11.11,0,0,1,16.56,7.9Z"/><path class="cls-2" d="M18.34,10.16a.11.11,0,0,1-.05-.2L20,9.09a.11.11,0,0,1,.1.19l-1.66.87Z"/><path class="cls-2" d="M20.75,12.83h0l-1.87-.12a.11.11,0,1,1,0-.22l1.87.12a.11.11,0,0,1,0,.22Z"/><path class="cls-2" d="M19.56,16.61l-.06,0L18,15.52a.11.11,0,0,1,.12-.18l1.54,1.07a.11.11,0,0,1-.06.2Z"/><path class="cls-2" d="M10.54,7.9a.11.11,0,0,1-.09-.05l-1-1.6a.11.11,0,0,1,.18-.11l1,1.6a.11.11,0,0,1,0,.15Z"/><path class="cls-2" d="M8.76,10.16h0L7,9.28a.11.11,0,1,1,.1-.19L8.81,10a.11.11,0,0,1-.05.2Z"/><path class="cls-2" d="M6.35,12.83a.11.11,0,0,1,0-.22l1.87-.12a.11.11,0,1,1,0,.22l-1.87.12Z"/><path class="cls-2" d="M7.54,16.61a.11.11,0,0,1-.06-.2L9,15.34a.11.11,0,1,1,.12.18L7.6,16.59Z"/></g></g></svg>