<svg xmlns="http://www.w3.org/2000/svg" viewBox="0 0 71.14 81.29"><defs><style>.cls-1{fill:#414042;}</style></defs><title>Asset 13</title><g id="Layer_2" data-name="Layer 2"><g id="Layer_2-2" data-name="Layer 2"><path class="cls-1" d="M5.57,0H45.7c.35.09.7.18,1.06.26a17.2,17.2,0,0,1,8.67,4.38c3.53,3.47,7,7,10.51,10.5a17,17,0,0,1,5.19,12.39c0,6.08,0,12.16,0,18.24q0,14.41,0,28.82a6.38,6.38,0,0,1-6.38,6.69q-29.18,0-58.36,0a6.81,6.81,0,0,1-2.91-.73,6.19,6.19,0,0,1-3.48-6Q0,57.08,0,39.62,0,23.19,0,6.77a6.69,6.69,0,0,1,2-5A7.61,7.61,0,0,1,5.57,0ZM45.74,5.17c-.7,0-1.28-.11-1.87-.11H6.94c-1.46,0-1.88.43-1.88,1.91q0,33.63,0,67.26c0,1.61.39,2,2,2H64.11c1.57,0,2-.4,2-1.95q0-23.47,0-46.94c0-.39-.08-.78-.06-1.16,0-.7-.3-.83-.94-.83-6.17,0-12.34,0-18.5,0h-.84Zm5.08,15.12H63.61l.11-.19L51,7.39l-.18.13Z"/><path class="cls-1" d="M36.46,19.75A89.91,89.91,0,0,1,35,31.38a1.65,1.65,0,0,0,.07.88,27.31,27.31,0,0,0,7.83,11.41,21.59,21.59,0,0,0,2.92,1.91,1.74,1.74,0,0,0,1,.09,49.29,49.29,0,0,1,9.77-.44,10.87,10.87,0,0,1,4.27,1,2.77,2.77,0,0,1,1.76,2.63,10.78,10.78,0,0,1-.17,2.05,3.13,3.13,0,0,1-3.29,2.63,18.89,18.89,0,0,1-7-1.21c-2.31-.82-4.57-1.81-6.8-2.85A3.41,3.41,0,0,0,43,49.26C38.92,50.15,34.81,51,30.71,52c-1.8.42-3.57,1-5.35,1.55a1,1,0,0,0-.47.39c-1.68,2.56-3.27,5.19-5,7.69a14.57,14.57,0,0,1-5.57,5.12,4,4,0,0,1-3.33.1c-.36-.15-.71-.32-1.06-.49a2.17,2.17,0,0,1-1.26-3,9.47,9.47,0,0,1,2.27-3.51,30,30,0,0,1,7.85-5.65c.55-.29,1.09-.62,1.67-.86a2.83,2.83,0,0,0,1.4-1.45c2.57-5,5.15-10,7.7-15A34.42,34.42,0,0,0,30.9,33.6a1.75,1.75,0,0,0,0-.93c-.63-3-1.36-6.07-1.91-9.13a17.53,17.53,0,0,1,0-7,2.71,2.71,0,0,1,2.3-2.24,11.94,11.94,0,0,1,2.2-.1,2.74,2.74,0,0,1,2.15,1.49A7.13,7.13,0,0,1,36.46,19.75Zm4.16,26.76a29.81,29.81,0,0,1-7.5-8.91L26.91,50.3Zm-7.35-20h.19c.18-.4.39-.8.54-1.22a12.48,12.48,0,0,0,.51-6.07,12.62,12.62,0,0,0-.7-2.61c-.12-.32-.56-.52-.86-.77a4.81,4.81,0,0,0-.35,1,27.69,27.69,0,0,0,.17,7C32.88,24.79,33.1,25.67,33.27,26.55ZM51.39,48.14l-.08.37c2,.65,3.89,1.4,5.88,1.91a9.84,9.84,0,0,0,3.08,0c.66,0,.85-.62.33-1A5,5,0,0,0,59,48.58a15.14,15.14,0,0,0-4.81-.45C53.23,48.15,52.31,48.14,51.39,48.14ZM11.89,64.38c2.08-.54,6.64-6.72,7.32-8.44C16.31,58.41,13.6,61,11.89,64.38Z"/></g></g></svg>