<svg xmlns="http://www.w3.org/2000/svg" viewBox="0 0 27.35 27.35"><defs><style>.cls-1{opacity:0.35;}.cls-2,.cls-3{fill:none;stroke-miterlimit:10;stroke-width:0.25px;}.cls-2{stroke:#84c667;}.cls-3{stroke:#4d4d52;fill-rule:evenodd;}</style></defs><title>Asset 10</title><g id="Layer_2" data-name="Layer 2"><g id="Layer_2-2" data-name="Layer 2"><g class="cls-1"><circle class="cls-2" cx="13.67" cy="13.67" r="13.55"/></g><path class="cls-3" d="M12.75,16.9a.42.42,0,0,0-.41.41.45.45,0,0,0,0,.13H15a.44.44,0,0,0,0-.13.41.41,0,0,0-.4-.41h-.14V14.59h.14a.4.4,0,0,0,.4-.4.4.4,0,0,0-.11-.29l-.42.09a3.93,3.93,0,0,1-.78.06,3.88,3.88,0,0,1-.77-.06l-.42-.09a.41.41,0,0,0-.13.29.41.41,0,0,0,.41.4h.14V16.9ZM14.12,10l-.36-1.24L13.4,10v0H12.18l1,.77,0,0v0l-.36,1.24.94-.77h.05l.94.77-.36-1.24v0l0,0,1-.77H14.13Zm5.54-1.88a.34.34,0,0,0-.33-.31H8a.33.33,0,0,0-.33.31A4.53,4.53,0,0,0,9,11.63a3.88,3.88,0,0,0,.77.6c.27.19.61.32.78.63a.37.37,0,0,1-.22.54H10.2A.39.39,0,0,1,9.86,13a.25.25,0,0,0-.27-.26.26.26,0,0,0-.28.26.94.94,0,0,0,.6.87.74.74,0,0,0,.29.05.94.94,0,0,0,.69-.33.83.83,0,0,0,.19-.68,4.26,4.26,0,0,0,1.81.78,3.93,3.93,0,0,0,1.54,0,4.26,4.26,0,0,0,1.81-.78.83.83,0,0,0,.19.68.89.89,0,0,0,.69.33.79.79,0,0,0,.29-.05A1,1,0,0,0,18,13a.26.26,0,0,0-.28-.26.25.25,0,0,0-.27.26.4.4,0,0,1-.34.38h-.08a.37.37,0,0,1-.22-.54,2,2,0,0,1,.78-.63,3.47,3.47,0,0,0,.75-.6,4.49,4.49,0,0,0,1.29-3.51ZM8.2,8.44a.16.16,0,0,1,0-.08H9.47A4.31,4.31,0,0,0,10,11.77,4,4,0,0,1,8.2,8.44Zm9.12,3.33a4.3,4.3,0,0,0,.54-3.41h1.26s0,.05,0,.08a4,4,0,0,1-1.81,3.33Zm-.85,8.09V18.38a.15.15,0,0,0-.15-.14h-.4a.15.15,0,0,1-.15-.14v-.26a.14.14,0,0,0-.14-.14H11.7a.14.14,0,0,0-.14.14v.26a.14.14,0,0,1-.15.14H11a.15.15,0,0,0-.15.14v1.48A.15.15,0,0,0,11,20h5.31a.15.15,0,0,0,.15-.14Zm-2.6-.19h-.32V18.44a1.17,1.17,0,0,1-.42.24v-.29a.7.7,0,0,0,.27-.17.62.62,0,0,0,.22-.27h.26Z"/></g></g></svg>