<svg xmlns="http://www.w3.org/2000/svg" viewBox="0 0 27.1 27.1"><defs><style>.cls-1{fill:#4d4d52;}.cls-2{fill:#84c667;fill-rule:evenodd;}</style></defs><title>Asset 2</title><g id="Layer_2" data-name="Layer 2"><g id="Layer_2-2" data-name="Layer 2"><circle class="cls-1" cx="13.55" cy="13.55" r="13.55"/><path class="cls-2" d="M17.5,8.7,16,7.21V8.7Zm3.1,3.48h0l.33-.29L19.4,10.36l-.29.32Zm-.28.32h0L18.79,11l-4.85,4.88,1.5,1.49Zm-1.51-2.12h0l.59-.59,2.13,2.1-.62.6h0l-.16.16-2.54,2.52v4.91H7.85V6.44h7.92l0,0a.17.17,0,0,1,.13.06l.44.44L18.23,8.7v.24h0v2l.57-.57Zm-4.5,7.4h0l-.8-.8-.08.88Zm-.8-1.45h0l1.73,1.78-2.3.24L13.18,16Zm4.27-.71h0l-2.33,2.32-2.11-2.1q2.23-2.22,4.44-4.46V9.15h-2a.22.22,0,0,1-.24-.2V6.89H8.26v12.8h9.52Z"/></g></g></svg>