<svg xmlns="http://www.w3.org/2000/svg" viewBox="0 0 27.35 27.35"><defs><style>.cls-1{opacity:0.35;}.cls-2{fill:none;stroke:#0cb14c;stroke-miterlimit:10;stroke-width:0.25px;}.cls-3{fill:#4d4d52;fill-rule:evenodd;}</style></defs><title>Asset 7</title><g id="Layer_2" data-name="Layer 2"><g id="Layer_2-2" data-name="Layer 2"><g class="cls-1"><circle class="cls-2" cx="13.67" cy="13.67" r="13.55"/></g><path class="cls-3" d="M12.45,14.73l.08,0,1.18,1.09,1.14-1.09s0,0,.08,0h4.2l-1.72-5.5H14.84V8.94h2.69c.08,0,.12,0,.17.12l1.77,5.8V18.6a.11.11,0,0,1-.12.12H8.08c-.08,0-.17,0-.17-.12V14.86l1.8-5.8c0-.08,0-.12.13-.12h2.68v.29H10l-1.69,5.5Zm1.3-8.44h0l1.47,1.47a.12.12,0,0,1,.05.08.12.12,0,0,1-.05.12L15,8.23l-1-1.06v7.27a.24.24,0,0,1-.1.17.17.17,0,0,1-.16.08c-.08,0-.16,0-.21-.08a.23.23,0,0,1-.08-.17V7.13L12.32,8.23,12.07,8a.14.14,0,0,1,0-.12.13.13,0,0,1,0-.08l1.47-1.47a.12.12,0,0,1,.08,0,.14.14,0,0,1,.12,0Zm1.43,8.87h0L13.71,16.5l-1.51-1.34H8.33v3.19H19.08V15.16Z"/></g></g></svg>