<svg xmlns="http://www.w3.org/2000/svg" viewBox="0 0 27.1 27.1"><defs><style>.cls-1{fill:#4d4d52;}.cls-2{fill:#84c667;}</style></defs><title>Asset 5</title><g id="Layer_2" data-name="Layer 2"><g id="Layer_2-2" data-name="Layer 2"><circle class="cls-1" cx="13.55" cy="13.55" r="13.55"/><path class="cls-2" d="M11.86,17,9.25,14.38a.42.42,0,0,1,.6-.6l2,2,5.39-5.39a.42.42,0,1,1,.6.6Zm0,0"/><path class="cls-2" d="M13.55,22.47v0a8.92,8.92,0,1,1,8.92-8.92,8.93,8.93,0,0,1-8.92,8.92Zm0-17a8.08,8.08,0,1,0,0,16.16h0a8.08,8.08,0,0,0,0-16.16Zm0,0"/></g></g></svg>