<svg xmlns="http://www.w3.org/2000/svg" viewBox="0 0 27.1 27.1"><defs><style>.cls-1{fill:#4d4d52;}.cls-2,.cls-3{fill:#4ebd91;}.cls-3{fill-rule:evenodd;}</style></defs><title>Asset 3</title><g id="Layer_2" data-name="Layer 2"><g id="Layer_2-2" data-name="Layer 2"><circle class="cls-1" cx="13.55" cy="13.55" r="13.55"/><path class="cls-2" d="M13.57,22.47v0a8.92,8.92,0,1,1,8.92-8.92,8.93,8.93,0,0,1-8.92,8.92Zm0-17a8.08,8.08,0,1,0,0,16.16h0a8.08,8.08,0,0,0,0-16.16Zm0,0"/><path class="cls-3" d="M12.32,14.61l.08,0,1.18,1.09,1.14-1.09s0,0,.08,0H19l-1.72-5.5H14.72V8.82h2.69c.08,0,.12,0,.17.12l1.77,5.8v3.74a.11.11,0,0,1-.12.12H8c-.08,0-.17,0-.17-.12V14.73l1.8-5.8c0-.08,0-.12.13-.12H12.4v.29H9.85l-1.69,5.5Zm1.3-8.44h0l1.47,1.47a.12.12,0,0,1,.05.08.12.12,0,0,1-.05.12l-.25.26L13.8,7v7.27a.24.24,0,0,1-.1.17.17.17,0,0,1-.16.08c-.08,0-.16,0-.21-.08a.23.23,0,0,1-.08-.17V7L12.2,8.1l-.25-.26a.14.14,0,0,1,0-.12.13.13,0,0,1,0-.08l1.47-1.47a.12.12,0,0,1,.08,0,.14.14,0,0,1,.12,0ZM15.05,15h0l-1.47,1.34L12.07,15H8.2v3.19H19V15Z"/></g></g></svg>