<svg xmlns="http://www.w3.org/2000/svg" viewBox="0 0 536.24 327.69"><defs><style>.cls-1{font-size:10.15px;font-family:Poppins-SemiBold, Poppins;font-weight:700;}.cls-1,.cls-2{fill:#fff;}.cls-2{font-size:8px;font-family:Poppins-Light, Poppins;}.cls-12,.cls-3,.cls-4,.cls-9{fill:#84c667;}.cls-3,.cls-5{opacity:0.9;}.cls-4,.cls-6{opacity:0.2;}.cls-5{fill:#60c092;}.cls-10,.cls-11,.cls-6{fill:#4ebd91;}.cls-7{font-size:18.91px;fill:#e4e4ea;font-family:Prompt-Medium, Prompt Medium;}.cls-8{fill:#4d4d52;}.cls-11,.cls-12{fill-rule:evenodd;}</style></defs><title>smu darbiba</title><g id="Layer_2" data-name="Layer 2"><g id="Layer_2-2" data-name="Layer 2"><text class="cls-1" transform="translate(128.74 294.15)">Biznesa idejas <tspan x="0" y="12.18">radīšana</tspan></text><text class="cls-2" transform="translate(185.84 243.93)">SMU rokasgrāmata<tspan x="0" y="9.6">Dalībnieku atbildības</tspan><tspan x="0" y="19.2">Biznesa plāns</tspan></text><text class="cls-2" transform="translate(300.33 127.86)">Dalība gadatirgos<tspan x="0" y="9.6">Pārdošana</tspan><tspan x="0" y="19.2">Grāmatvedības uzskaite</tspan></text><text class="cls-2" transform="translate(246.7 188.75)">Ražošana<tspan x="0" y="9.6">Mārketinga aktivitātes</tspan></text><text class="cls-1" transform="translate(405.89 9.14)">Uzņēmuma likvidācija <tspan x="0" y="12.18">vai turpinājums</tspan></text><text class="cls-1" transform="translate(361.13 69.79)">Sacensības, konkursi</text><text class="cls-1" transform="translate(300.33 115.35)">Uzņēmums darbībā</text><text class="cls-1" transform="translate(246.02 176.93)">SMU attīstība</text><text class="cls-1" transform="translate(185.84 231.92)">SMU veidošana</text><path class="cls-3" d="M110.94,327.69H3.42A3.43,3.43,0,0,1,0,324.28H0a3.43,3.43,0,0,1,3.42-3.42H110.94a3.43,3.43,0,0,1,3.42,3.42h0A3.43,3.43,0,0,1,110.94,327.69Z"/><path class="cls-4" d="M114.36,266.7v57.57a3.43,3.43,0,0,1-3.42,3.42h0a3.43,3.43,0,0,1-3.42-3.42V266.7a3.43,3.43,0,0,1,3.42-3.42h0A3.43,3.43,0,0,1,114.36,266.7Z"/><path class="cls-5" d="M168.51,269.3H110.94a3.43,3.43,0,0,1-3.42-3.42h0a3.43,3.43,0,0,1,3.42-3.42h57.57a3.43,3.43,0,0,1,3.42,3.42h0A3.43,3.43,0,0,1,168.51,269.3Z"/><path class="cls-6" d="M171.93,209v56.84a3.43,3.43,0,0,1-3.42,3.42h0a3.43,3.43,0,0,1-3.42-3.42V209a3.43,3.43,0,0,1,3.42-3.42h0A3.43,3.43,0,0,1,171.93,209Z"/><path class="cls-3" d="M225.91,211.75H168.34a3.43,3.43,0,0,1-3.42-3.42h0a3.43,3.43,0,0,1,3.42-3.42h57.57a3.43,3.43,0,0,1,3.42,3.42h0A3.43,3.43,0,0,1,225.91,211.75Z"/><path class="cls-3" d="M341.05,96.91H283.48a3.43,3.43,0,0,1-3.42-3.42h0a3.43,3.43,0,0,1,3.42-3.42h57.57a3.43,3.43,0,0,1,3.42,3.42h0A3.43,3.43,0,0,1,341.05,96.91Z"/><path class="cls-4" d="M229.32,151v57.33a3.43,3.43,0,0,1-3.42,3.42h0a3.43,3.43,0,0,1-3.42-3.42V151a3.43,3.43,0,0,1,3.42-3.42h0A3.43,3.43,0,0,1,229.32,151Z"/><path class="cls-5" d="M283.48,154.2H225.91a3.43,3.43,0,0,1-3.42-3.42h0a3.43,3.43,0,0,1,3.42-3.42h57.57a3.43,3.43,0,0,1,3.42,3.42h0A3.43,3.43,0,0,1,283.48,154.2Z"/><path class="cls-6" d="M286.9,93.5v57.28a3.43,3.43,0,0,1-3.42,3.42h0a3.43,3.43,0,0,1-3.42-3.42V93.5a3.43,3.43,0,0,1,3.42-3.42h0A3.43,3.43,0,0,1,286.9,93.5Z"/><path class="cls-6" d="M344.48,36.63V93.91a3.43,3.43,0,0,1-3.42,3.42h0a3.43,3.43,0,0,1-3.42-3.42V36.63a3.43,3.43,0,0,1,3.42-3.42h0A3.43,3.43,0,0,1,344.48,36.63Z"/><path class="cls-3" d="M450,40h-109a3.43,3.43,0,0,1-3.42-3.42h0a3.43,3.43,0,0,1,3.42-3.42H450a3.43,3.43,0,0,1,3.42,3.42h0A3.43,3.43,0,0,1,450,40Z"/><text class="cls-7" transform="translate(82.07 307.53)">01</text><text class="cls-7" transform="translate(191.84 185.76)">03</text><text class="cls-7" transform="translate(134 245.19)">02</text><text class="cls-7" transform="translate(248.67 128.9)">04</text><text class="cls-7" transform="translate(301.29 71.28)">05</text><text class="cls-7" transform="translate(371.5 20.02)">06</text><circle class="cls-8" cx="63.46" cy="299.14" r="13.55"/><circle class="cls-8" cx="170.45" cy="177.38" r="13.55"/><circle class="cls-8" cx="225.91" cy="120.27" r="13.55"/><path class="cls-9" d="M225.9,128.92v0a8.65,8.65,0,1,1,8.65-8.65,8.66,8.66,0,0,1-8.65,8.65Zm0-16.47a7.82,7.82,0,1,0,0,15.64h0a7.82,7.82,0,0,0,0-15.64Zm0,0"/><path class="cls-9" d="M225.9,125.23a2.78,2.78,0,0,1-2.85-2.69.42.42,0,0,1,.83,0,2,2,0,1,0,2-1.85,2.69,2.69,0,1,1,0-5.37,2.92,2.92,0,0,1,2.18,1,.42.42,0,1,1-.62.55,2.08,2.08,0,0,0-1.56-.68,1.86,1.86,0,1,0,0,3.71,2.69,2.69,0,1,1,0,5.37Zm0,0"/><path class="cls-9" d="M225.82,126.47a.42.42,0,0,1-.42-.42V114.49a.42.42,0,1,1,.83,0v11.57a.42.42,0,0,1-.42.42Zm0,0"/><path class="cls-10" d="M170.46,186.3v0a8.92,8.92,0,1,1,8.92-8.92,8.93,8.93,0,0,1-8.92,8.92Zm0-17a8.08,8.08,0,1,0,0,16.16h0a8.08,8.08,0,0,0,0-16.16Zm0,0"/><circle class="cls-8" cx="350.64" cy="13.55" r="13.55"/><path class="cls-9" d="M349,17l-2.61-2.61a.42.42,0,0,1,.6-.6l2,2,5.39-5.39a.42.42,0,1,1,.6.6Zm0,0"/><path class="cls-9" d="M350.64,22.47v0a8.92,8.92,0,1,1,8.92-8.92,8.93,8.93,0,0,1-8.92,8.92Zm0-17a8.08,8.08,0,1,0,0,16.16h0a8.08,8.08,0,0,0,0-16.16Zm0,0"/><path class="cls-10" d="M65,305.2h-3a.55.55,0,0,1,0-1.1h3a.55.55,0,1,1,0,1.1Zm-3-.85a.3.3,0,0,0,0,.6h3a.3.3,0,1,0,0-.6Z"/><path class="cls-10" d="M63.44,307.35a.91.91,0,0,1-.89-.68,1.12,1.12,0,0,1-1-1.1v-.13h3.68v.13a1.12,1.12,0,0,1-1,1.1A.91.91,0,0,1,63.44,307.35Zm-1.58-1.66a.87.87,0,0,0,.81.73h.1l0,.1a.66.66,0,0,0,1.31,0l0-.1h.1a.87.87,0,0,0,.81-.73Z"/><path class="cls-10" d="M65.43,303.84h-4v-1.45a17.61,17.61,0,0,0-1.3-1.9,4.16,4.16,0,0,1-.9-2.6,4.22,4.22,0,1,1,8.44,0,4.16,4.16,0,0,1-.9,2.6,20,20,0,0,0-1.32,1.94Zm-3.75-.25h3.5v-1.23l0,0a20.26,20.26,0,0,1,1.36-2,3.91,3.91,0,0,0,.85-2.45,4,4,0,1,0-7.93,0,3.91,3.91,0,0,0,.85,2.45,17.86,17.86,0,0,1,1.34,2l0,0Z"/><rect class="cls-10" x="62.28" y="299.2" width="0.29" height="4.48" transform="translate(-63.05 20.34) rotate(-12.35)"/><rect class="cls-10" x="62.15" y="301.36" width="4.57" height="0.25" transform="translate(-243.86 301.31) rotate(-77.9)"/><rect class="cls-10" x="62.75" y="306.43" width="1.42" height="0.25"/><polygon class="cls-10" points="63.21 300.75 62.96 299.79 62.27 300.24 62.17 300.09 63.07 299.49 63.25 300.19 63.71 299.06 64.09 300.15 64.77 299.84 64.84 300 63.99 300.39 63.7 299.57 63.21 300.75"/><path class="cls-10" d="M63.59,292.79a.11.11,0,0,1-.11-.11v-1.87a.11.11,0,0,1,.22,0v1.87A.11.11,0,0,1,63.59,292.79Z"/><path class="cls-10" d="M66.47,293.49l-.06,0a.11.11,0,0,1,0-.15l1-1.6a.11.11,0,0,1,.18.11l-1,1.6A.11.11,0,0,1,66.47,293.49Z"/><path class="cls-10" d="M68.25,295.76a.11.11,0,0,1-.05-.2l1.66-.87a.11.11,0,0,1,.1.19l-1.66.87Z"/><path class="cls-10" d="M70.66,298.43h0l-1.87-.12a.11.11,0,1,1,0-.22l1.87.12a.11.11,0,0,1,0,.22Z"/><path class="cls-10" d="M69.47,302.2l-.06,0-1.54-1.07a.11.11,0,1,1,.12-.18L69.53,302a.11.11,0,0,1-.06.2Z"/><path class="cls-10" d="M60.45,293.49a.11.11,0,0,1-.09-.05l-1-1.6a.11.11,0,0,1,.18-.11l1,1.6a.11.11,0,0,1,0,.15Z"/><path class="cls-10" d="M58.67,295.76h0L57,294.88a.11.11,0,1,1,.1-.19l1.66.87a.11.11,0,0,1-.05.2Z"/><path class="cls-10" d="M56.26,298.43a.11.11,0,0,1,0-.22l1.87-.12a.11.11,0,1,1,0,.22l-1.87.12Z"/><path class="cls-10" d="M57.45,302.2a.11.11,0,0,1-.06-.2l1.54-1.07a.11.11,0,1,1,.12.18l-1.54,1.07Z"/><circle class="cls-8" cx="283.42" cy="62.28" r="13.55"/><path class="cls-11" d="M282.5,65.51a.42.42,0,0,0-.41.41.45.45,0,0,0,0,.13h2.59a.44.44,0,0,0,0-.13.41.41,0,0,0-.4-.41h-.14V63.2h.14a.4.4,0,0,0,.4-.4.4.4,0,0,0-.11-.29l-.42.09a3.93,3.93,0,0,1-.78.06,3.88,3.88,0,0,1-.77-.06l-.42-.09a.41.41,0,0,0-.13.29.41.41,0,0,0,.41.4h.14v2.31Zm1.37-6.9-.36-1.24-.36,1.24v0h-1.21l1,.77,0,0v0l-.36,1.24.94-.77h.05l.94.77-.36-1.24v0l0,0,1-.77h-1.21Zm5.54-1.88a.34.34,0,0,0-.33-.31H277.75a.33.33,0,0,0-.33.31,4.53,4.53,0,0,0,1.28,3.51,3.88,3.88,0,0,0,.77.6c.27.19.61.32.78.63A.37.37,0,0,1,280,62h-.08a.39.39,0,0,1-.34-.38.25.25,0,0,0-.27-.26.26.26,0,0,0-.28.26.94.94,0,0,0,.6.87.74.74,0,0,0,.29.05.94.94,0,0,0,.69-.33.83.83,0,0,0,.19-.68,4.26,4.26,0,0,0,1.81.78,3.93,3.93,0,0,0,1.54,0,4.26,4.26,0,0,0,1.81-.78.83.83,0,0,0,.19.68.89.89,0,0,0,.69.33.79.79,0,0,0,.29-.05,1,1,0,0,0,.6-.87.26.26,0,0,0-.28-.26.25.25,0,0,0-.27.26.4.4,0,0,1-.34.38h-.08a.37.37,0,0,1-.22-.54,2,2,0,0,1,.78-.63,3.47,3.47,0,0,0,.75-.6,4.49,4.49,0,0,0,1.29-3.51ZM277.94,57a.16.16,0,0,1,0-.08h1.26a4.31,4.31,0,0,0,.54,3.41A4,4,0,0,1,277.94,57Zm9.12,3.33A4.3,4.3,0,0,0,287.6,57h1.26s0,.05,0,.08a4,4,0,0,1-1.81,3.33Zm-.85,8.09V67a.15.15,0,0,0-.15-.14h-.4a.15.15,0,0,1-.15-.14v-.26a.14.14,0,0,0-.14-.14h-3.93a.14.14,0,0,0-.14.14v.26a.14.14,0,0,1-.15.14h-.4a.15.15,0,0,0-.15.14v1.48a.15.15,0,0,0,.15.14h5.31a.15.15,0,0,0,.15-.14Zm-2.6-.19h-.32V67a1.17,1.17,0,0,1-.42.24V67a.7.7,0,0,0,.27-.17.62.62,0,0,0,.22-.27h.26Z"/><circle class="cls-8" cx="113.29" cy="237.46" r="13.55"/><path class="cls-12" d="M117.24,232.62l-1.49-1.49v1.49Zm3.1,3.48h0l.33-.29-1.53-1.53-.29.32Zm-.28.32h0l-1.53-1.53-4.85,4.88,1.5,1.49Zm-1.51-2.12h0l.59-.59,2.13,2.1-.62.6h0l-.16.16L118,239.1V244H107.59V230.36h7.92l0,0a.17.17,0,0,1,.13.06l.44.44,1.87,1.74v.24h0v2l.57-.57Zm-4.5,7.4h0l-.8-.8-.08.88Zm-.8-1.45h0L115,242l-2.3.24.24-2.31Zm4.27-.71h0l-2.33,2.32-2.11-2.1q2.23-2.22,4.44-4.46v-2.24h-2a.22.22,0,0,1-.24-.2v-2.06H108v12.8h9.52Z"/><path class="cls-11" d="M169.22,178.44l.08,0,1.18,1.09,1.14-1.09s0,0,.08,0h4.2l-1.72-5.5h-2.57v-.29h2.69c.08,0,.12,0,.17.12l1.77,5.8v3.74a.11.11,0,0,1-.12.12H164.85c-.08,0-.17,0-.17-.12v-3.74l1.8-5.8c0-.08,0-.12.13-.12h2.68v.29h-2.55l-1.69,5.5Zm1.3-8.44h0l1.47,1.47a.12.12,0,0,1,.05.08.12.12,0,0,1-.05.12l-.25.26-1-1.06v7.27a.24.24,0,0,1-.1.17.17.17,0,0,1-.16.08c-.08,0-.16,0-.21-.08a.23.23,0,0,1-.08-.17v-7.31l-1.05,1.09-.25-.26a.14.14,0,0,1,0-.12.13.13,0,0,1,0-.08l1.47-1.47a.12.12,0,0,1,.08,0,.14.14,0,0,1,.12,0Zm1.43,8.87h0l-1.47,1.34L169,178.86H165.1v3.19h10.76v-3.19Z"/><text></text><text></text></g></g></svg>